<svg xmlns="http://www.w3.org/2000/svg" viewBox="0 0 48 48" fill="#000000" style="width: 100%; height: 100%;">
  <path fill="#00ACC1" d="M31.438,8h5.844l-3.719,16.262C33,26,32.499,28.971,31.969,30.014c1.063,4.186,2.125,6.277,4.25,6.277s2.656-1.568,3.188-4.184H41c0,2.615-0.531,4.708-1.594,6.276C38.344,39.953,37.281,41,35.688,41c-1.063,0-2.125-0.523-2.656-1.568c-0.532-1.048-1.063-3.141-2.125-6.277C28.25,38.384,24.531,41,19.219,41c-3.719,0-6.907-2.094-9.031-4.709C8.063,33.154,7,29.491,7,23.737c0-5.229,1.063-9.415,3.719-12.553S16.031,7,19.219,7c2.656,0,4.25,1.047,5.843,2.616c1.594,1.568,2.656,4.184,4.25,8.368L31.438,8z M28.25,21.646c-1.063-3.661-2.125-6.801-3.719-8.893c-1.594-2.093-3.188-3.138-4.781-3.138c-4.25,0-6.375,4.706-6.375,14.646c0,9.416,2.125,14.122,6.375,14.122c3.719,0,6.375-4.185,7.969-12.553L28.25,21.646z"/>
</svg>
