<svg xmlns="http://www.w3.org/2000/svg" viewBox="0 0 48 48" style="width: 100%; height: 100%;">
  <path d="m31.513 14.999c-3.258 0-4.6345 1.5176-6.8965 1.5176-2.328 0-4.099-1.5137-6.916-1.5137-2.765 0-5.7113 1.6462-7.5723 4.4492-1.3743 2.0648-1.8985 5.0799-1.4883 8.3906 0.046956 0.379 0.10587 0.76065 0.17773 1.1465 0.070255 0.37719 0.14978 0.7568 0.24414 1.1387 0.00831 0.03381 0.018842 0.06773 0.027344 0.10156 0.089263 0.35353 0.18673 0.70856 0.29688 1.0645 0.018216 0.05914 0.039799 0.11856 0.058594 0.17773 0.10506 0.32926 0.21671 0.65838 0.33984 0.98828 0.042576 0.11455 0.089993 0.22922 0.13476 0.34375 0.10797 0.27512 0.21524 0.54966 0.33594 0.82422 0.15409 0.35162 0.31886 0.70327 0.49414 1.0527 0.02074 0.04124 0.04147 0.08184 0.0625 0.12305 0.08573 0.16833 0.17492 0.33635 0.26562 0.50391 0.01155 0.02131 0.02157 0.04316 0.0332 0.06445 0.10949 0.2007 0.22314 0.4003 0.33984 0.59961 0.09501 0.16226 0.19315 0.3232 0.29297 0.48438 0.02897 0.04676 0.05656 0.09396 0.08594 0.14062 0.0013 2e-3 0.0026 0.0039 0.0039 0.0059 0.12026 0.19091 0.24407 0.38122 0.37109 0.57031 3.05e-4 4.55e-4 -3.06e-4 0.0015 0 2e-3 0.37997 0.56409 0.79252 1.145 1.2383 1.7012 3.25e-4 4.06e-4 -3.25e-4 0.0015 0 2e-3 0.22307 0.27828 0.45516 0.54877 0.69531 0.80859 0.36022 0.38973 0.74084 0.75301 1.1406 1.0703 0.26656 0.21153 0.5415 0.40275 0.82617 0.56836 0.28463 0.16561 0.5777 0.30536 0.88086 0.41406 0.45479 0.16306 0.93206 0.25564 1.4297 0.25977 0.14781 0.0016 0.28824-0.0022 0.42383-0.01172 0.27118-0.01915 0.51923-0.05838 0.75391-0.11328 1.0561-0.24671 1.8266-0.7979 3.0645-1.1172 0.27507-0.07089 0.57283-0.12964 0.90234-0.17188 0.32952-0.04224 0.6913-0.06648 1.0918-0.06836 0.20031-0.0015 0.39117 0.0019 0.57227 0.01172 0.54328 0.02952 1.0036 0.10652 1.4121 0.21094 0.81705 0.20883 1.4229 0.52703 2.0449 0.79102 0.51838 0.21999 1.0477 0.40229 1.7227 0.45312 0.13494 0.01017 0.27626 0.0148 0.42383 0.01367 0.166-0.0012 0.33018-0.01281 0.49219-0.03516 0.32402-0.04479 0.63956-0.13073 0.94727-0.25 0.3077-0.11919 0.60752-0.27257 0.89844-0.45313 0.29091-0.1806 0.574-0.38841 0.84766-0.61719 0.41048-0.34314 0.79961-0.73185 1.1699-1.1465 0.24687-0.2764 0.48642-0.56377 0.71484-0.85547 3.26e-4 -4.16e-4 -3.25e-4 -0.0015 0-2e-3 0.45651-0.58309 0.87584-1.1824 1.2559-1.748 3.43e-4 -5.11e-4 -3.43e-4 -0.0014 0-2e-3 0.54359-0.80888 0.91843-1.4185 1.2617-2.0547 2.66e-4 -4.92e-4 -2.65e-4 -0.0015 0-2e-3 0.3435-0.63675 0.65608-1.2993 1.0801-2.2168-0.18231-0.06744-0.36001-0.14263-0.5332-0.2207-0.03507-0.01582-0.06882-0.03258-0.10352-0.04883-0.14606-0.06832-0.28838-0.13928-0.42774-0.21484-0.02489-0.01351-0.04955-0.02729-0.07422-0.04102-0.12654-0.07037-0.25024-0.14462-0.37109-0.2207-0.05366-0.03381-0.10764-0.06666-0.16016-0.10156-0.09746-0.06469-0.19159-0.13286-0.28516-0.20117-0.04999-0.03655-0.10152-0.07182-0.15039-0.10938-0.11107-0.08523-0.21702-0.17348-0.32227-0.26367-0.02704-0.02317-0.05538-0.04487-0.08203-0.06836-0.1224-0.10785-0.24126-0.21977-0.35547-0.33398l-0.0059-0.0059c-0.07913-0.07945-0.15339-0.16182-0.22852-0.24414-0.03576-0.03919-0.07257-0.07737-0.10742-0.11719-0.06656-0.07603-0.13014-0.1542-0.19336-0.23242-0.04527-0.05585-0.0912-0.11105-0.13477-0.16797-0.06174-0.08093-0.12142-0.16312-0.17969-0.24609-0.02919-0.04142-0.05762-0.0831-0.08594-0.125-0.06875-0.1021-0.13566-0.20571-0.19922-0.31055-0.0059-0.0098-0.01171-0.01952-0.01758-0.0293-1.6394-2.731-1.5209-6.3404 0.66992-8.8887-0.05428 0.05952-0.10788 0.10987-0.16211 0.16797 0.63043-0.78106 1.4426-1.4723 2.457-2.0156-1.861-2.262-4.4657-3.5762-6.9297-3.5762z" fill="#000000"/>
  <path d="m29.458 12.073c1.269-1.577 2.232-3.804 1.882-6.072-2.069 0.138-4.491 1.418-5.905 3.075-1.282 1.51-2.345 3.752-1.931 5.922 2.259 0.069 4.597-1.233 5.954-2.925z" fill="#000000"/>
</svg>
