<svg xmlns="http://www.w3.org/2000/svg" viewBox="0 0 48 48" style="width: 100%; height: 100%;">
  <g stroke-width=".67702">
    <path d="m4.2352 5.0002a1.3541 1.3541 0 0 0-1.3541 1.5707l5.7478 34.893a1.8415 1.8415 0 0 0 1.8009 1.5368h27.575a1.3541 1.3541 0 0 0 1.3541-1.1374l5.7614-35.279a1.3541 1.3541 0 0 0-1.3541-1.5707zm24.203 25.219h-8.8012l-2.3831-12.443h13.317z" fill="#2684ff"/>
    <path d="m43.278 17.776h-12.708l-2.1324 12.443h12.82z" fill="#1d78f2"/>
    <path d="m43.278 17.776h-12.708l-1.5993 9.3327h12.792z" fill="#136be6"/>
    <path d="m43.278 17.776h-12.708l-1.0662 6.2217h12.764z" fill="#0a5fd9"/>
    <path d="m43.278 17.776h-12.708l-0.53311 3.1109h12.736z" fill="#0052cc"/>
  </g>
</svg>
