<svg xmlns="http://www.w3.org/2000/svg" viewBox="0 0 48 48" style="width: 100%; height: 100%;">
  <path fill="#9C27B0" d="M10,42V6.023L21.707,6c4.498,0,8.006,0.834,10.521,2.503C34.743,10.171,36,12.657,36,15.961c0,1.727-0.398,3.259-1.195,4.595s-1.869,2.368-3.563,3.049c2.156,0.465,4.164,1.428,5.201,2.889S38,29.641,38,31.549c0,3.535-1.188,6.209-3.561,8.018C32.064,41.377,28.842,42,24.408,42H10z M18,21h4c2.025,0,3.537-0.352,4.533-1.058s1.494-1.756,1.494-3.15c0-1.544-0.482-3.027-1.445-3.733S24.143,12,22.15,12H18V21z M18,27v9h5.621c1.793,0,3.139-0.354,4.035-1.059S29,33.152,29,31.691c0-1.543-0.395-2.715-1.184-3.512c-0.787-0.797-2.088-1.129-3.896-1.18h-0.273H18z"/>
</svg>
