<svg xmlns="http://www.w3.org/2000/svg" viewBox="0 0 48 48" style="width: 100%; height: 100%;">
  <path style="stroke:none;fill-rule:nonzero;fill:rgb(100%,75.686276%,2.745098%);fill-opacity:1;" d="M 7.628906 27.34375 C 14.628906 41 28.628906 42 28.628906 42 C 33.660156 37.199219 37.164062 29.765625 37.164062 29.765625 L 22.386719 21.363281 C 22.386719 21.359375 16.066406 28.691406 7.628906 27.34375 Z M 7.628906 27.34375"/>
  <path style="stroke:none;fill-rule:nonzero;fill:rgb(70.19608%,89.803922%,98.823529%);fill-opacity:1;" d="M 8 6 C 6.894531 6 6 6.894531 6 8 C 6 9.105469 6.894531 10 8 10 C 9.105469 10 10 9.105469 10 8 C 10 6.894531 9.105469 6 8 6 Z M 14.5 8 C 13.671875 8 13 8.671875 13 9.5 C 13 10.328125 13.671875 11 14.5 11 C 15.328125 11 16 10.328125 16 9.5 C 16 8.671875 15.328125 8 14.5 8 Z M 13 13 C 11.34375 13 10 14.34375 10 16 C 10 17.65625 11.34375 19 13 19 C 14.65625 19 16 17.65625 16 16 C 16 14.34375 14.65625 13 13 13 Z M 13 13"/>
  <path style="stroke:none;fill-rule:nonzero;fill:rgb(20.392157%,59.607846%,85.882354%);fill-opacity:1;" d="M 36.277344 21.210938 L 35.796875 22.085938 L 29.695312 18.617188 L 30.191406 17.746094 L 37.480469 6.765625 C 38.21875 5.851562 39.589844 5.777344 40.628906 6.429688 C 41.695312 6.976562 42.265625 8.164062 41.878906 9.148438 Z M 36.277344 21.210938"/>
  <path style="stroke:none;fill-rule:nonzero;fill:rgb(20.392157%,59.607846%,85.882354%);fill-opacity:1;" d="M 35.40625 20.714844 L 31.058594 18.242188 C 27.582031 16.265625 24.855469 17.015625 22.878906 20.492188 L 22.382812 21.359375 L 37.160156 29.765625 L 37.65625 28.894531 C 39.636719 25.421875 38.882812 22.691406 35.40625 20.714844 Z M 35.40625 20.714844"/>
  <path style="stroke:none;fill-rule:nonzero;fill:rgb(96.078432%,48.627451%,0%);fill-opacity:1;" d="M 20.144531 23.4375 C 20.429688 24.074219 20.910156 24.996094 21.664062 25.527344 C 21.6875 25.546875 21.714844 25.554688 21.734375 25.570312 C 21.734375 25.570312 21.734375 25.570312 21.738281 25.570312 C 22.699219 26.25 23.886719 26.5 25.289062 26.328125 C 25.554688 27.042969 26.035156 27.894531 26.921875 28.519531 C 26.941406 28.53125 26.96875 28.539062 26.992188 28.558594 C 27.957031 29.238281 29.140625 29.488281 30.542969 29.316406 C 30.808594 30.03125 31.289062 30.882812 32.175781 31.507812 C 32.289062 31.589844 32.410156 31.664062 32.53125 31.734375 C 32.589844 31.765625 32.660156 31.78125 32.71875 31.8125 C 33.550781 32.253906 34.707031 32.402344 35.816406 32.296875 C 36.828125 30.664062 37.164062 29.765625 37.164062 29.765625 L 22.386719 21.363281 C 21.4375 22.308594 21.453125 22.28125 20.144531 23.4375 Z M 20.144531 23.4375"/>
  <path style="stroke:none;fill-rule:nonzero;fill:rgb(98.431373%,54.901963%,0%);fill-opacity:1;" d="M 14.5625 34.253906 C 15.832031 34.09375 20 33.417969 22.710938 29.167969 C 19 33.417969 11.878906 32.410156 10.488281 31.824219 C 11.207031 32.738281 11.957031 33.566406 12.726562 34.328125 C 13.21875 34.359375 13.816406 34.347656 14.5625 34.253906 Z M 17.242188 37.914062 C 18.441406 38.667969 19.625 39.289062 20.75 39.792969 C 20.757812 39.792969 20.765625 39.796875 20.769531 39.800781 C 21.089844 39.707031 21.433594 39.59375 21.824219 39.4375 C 23.144531 38.757812 26.164062 37.167969 28.710938 33.207031 C 24.789062 37.496094 19.632812 37.890625 17.242188 37.914062 Z M 17.242188 37.914062"/>
</svg>
