<svg xmlns="http://www.w3.org/2000/svg" viewBox="0 0 48 48" style="width: 100%; height: 100%;">
  <path d="m10.89 24c1.6387 0.81937 4.0968 3.1447 4.0968 5.7356v6.555c0 2.114 1.2118 3.6216 2.5941 4.0026 0.39248 0.10816 0.68335 0.43508 0.68335 0.84231 0 0.499-0.4228 0.89393-0.92097 0.8628-3.7683-0.23188-7.2727-1.9181-7.2727-5.7077v-6.555c0-2.3041-1.9435-4.3976-3.5257-4.8335-0.33266-0.09095-0.5711-0.37363-0.5711-0.71859v-0.29088c0-0.3892 0.27449-0.70302 0.64648-0.81773 1.5683-0.47933 3.4504-2.5433 3.4504-4.8105v-6.555c0-3.7896 3.5044-5.4758 7.2727-5.7077 0.49818-0.030317 0.92097 0.3638 0.92097 0.8628 0 0.40723-0.29088 0.73334-0.68335 0.84149-1.3823 0.38183-2.5941 1.8895-2.5941 4.0034v6.555c0 2.5908-2.4581 4.9162-4.0968 5.7356m26.22 0c-1.6387-0.81937-4.0968-3.1447-4.0968-5.7356v-6.555c0-2.114-1.2118-3.6216-2.5941-4.0026-0.39248-0.10816-0.68335-0.43509-0.68335-0.84231 0-0.499 0.4228-0.89393 0.92097-0.8628 3.7683 0.23188 7.2727 1.9181 7.2727 5.7077v6.555c0 2.3041 1.9435 4.3976 3.5257 4.8335 0.33266 0.09095 0.5711 0.37363 0.5711 0.71859v0.29088c0 0.3892-0.27449 0.70302-0.64648 0.81773-1.5683 0.48015-3.4504 2.5433-3.4504 4.8105v6.555c0 3.7896-3.5044 5.4758-7.2727 5.7077-0.49818 0.03032-0.92097-0.3638-0.92097-0.8628 0-0.40723 0.29088-0.73334 0.68335-0.84149 1.3823-0.38183 2.5941-1.8895 2.5941-4.0034v-6.555c0-2.5908 2.4581-4.9162 4.0968-5.7356" fill="#00bcd4" stroke-width=".81937"/>
</svg>
