<svg xmlns="http://www.w3.org/2000/svg" viewBox="0 0 48 48" style="width: 100%; height: 100%;">
  <path d="m24 5c-10.493 0-19 8.5067-19 19 0 8.9102 6.1342 16.388 14.41 18.441v-12.635h-3.918v-5.8066h3.918v-2.502c0-6.467 2.9262-9.4629 9.2754-9.4629 1.2037 0 3.2812 0.23465 4.1309 0.4707v5.2637c-0.44848-0.0472-1.2276-0.07031-2.1953-0.07031-3.1155 0-4.3184 1.1798-4.3184 4.248v2.0527h6.2051l-1.0664 5.8066h-5.1387v13.055c9.408-1.1363 16.697-9.147 16.697-18.861 0-10.493-8.5067-19-19-19z" fill="#0866ff"/>
</svg>
