<svg xmlns="http://www.w3.org/2000/svg" viewBox="0 0 172 172" style="width: 100%; height: 100%;">
  <g transform="translate(0 1.7917)">
    <path d="m111.08 17.917h-50.167c-1.978 0-3.5833 1.6053-3.5833 3.5833v28.667c0 1.978 1.6053 3.5833 3.5833 3.5833h50.167c1.978 0 3.5833-1.6053 3.5833-3.5833v-28.667c0-1.978-1.6053-3.5833-3.5833-3.5833z" fill="#42a3f2" style="mix-blend-mode:normal"/>
    <g fill="#1abc9c">
      <path d="m103.92 114.67h-35.833c-1.978 0-3.5833 1.6053-3.5833 3.5833v28.667c0 1.978 1.6053 3.5833 3.5833 3.5833h35.833c1.978 0 3.5833-1.6053 3.5833-3.5833v-28.667c0-1.978-1.6053-3.5833-3.5833-3.5833z" style="mix-blend-mode:normal"/>
      <path d="m161.25 114.67h-35.833c-1.978 0-3.5833 1.6053-3.5833 3.5833v28.667c0 1.978 1.6053 3.5833 3.5833 3.5833h35.833c1.978 0 3.5833-1.6053 3.5833-3.5833v-28.667c0-1.978-1.6053-3.5833-3.5833-3.5833z" style="mix-blend-mode:normal"/>
      <path d="m46.583 114.67h-35.833c-1.978 0-3.5833 1.6053-3.5833 3.5833v28.667c0 1.978 1.6053 3.5833 3.5833 3.5833h35.833c1.978 0 3.5833-1.6053 3.5833-3.5833v-28.667c0-1.978-1.6053-3.5833-3.5833-3.5833z" style="mix-blend-mode:normal"/>
    </g>
    <rect x="82.417" y="53.75" width="7.1667" height="60.917" fill="#64717c" style="mix-blend-mode:normal"/>
    <path d="m146.92 114.67h-7.1667v-28.667c0-1.9744-1.6089-3.5833-3.5833-3.5833h-100.33c-1.9744 0-3.5833 1.6089-3.5833 3.5833v28.667h-7.1667v-28.667c0-5.9268 4.8232-10.75 10.75-10.75h100.33c5.9268 0 10.75 4.8232 10.75 10.75z" fill="#64717c" style="mix-blend-mode:normal"/>
  </g>
</svg>
