<svg xmlns="http://www.w3.org/2000/svg" viewBox="0 0 48 48" style="width: 100%; height: 100%;">
  <path d="m24.016 5c-10.693 0-19.338 8.7083-19.338 19.482 0 8.6117 5.5389 15.901 13.223 18.481 0.96068 0.19396 1.3126-0.41919 1.3126-0.93496 0-0.45164-0.03167-1.9997-0.03167-3.6128-5.3794 1.1614-6.4996-2.3223-6.4996-2.3223-0.8645-2.2578-2.1454-2.8381-2.1454-2.8381-1.7607-1.1934 0.12825-1.1934 0.12825-1.1934 1.953 0.12904 2.9778 1.9997 2.9778 1.9997 1.7286 2.9672 4.5141 2.1288 5.6347 1.6126 0.15992-1.258 0.67252-2.1288 1.2168-2.6125-4.2904-0.45164-8.8045-2.1288-8.8045-9.612 0-2.1288 0.76791-3.8704 1.9847-5.225-0.19198-0.48371-0.8645-2.4838 0.19238-5.1609 0 0 1.6328-0.51616 5.3144 1.9997a18.592 18.592 0 0 1 4.8347-0.64521c1.6328 0 3.2973 0.22602 4.8343 0.64521 3.682-2.5159 5.3148-1.9997 5.3148-1.9997 1.0569 2.677 0.38396 4.6771 0.19198 5.1609 1.2488 1.3545 1.9851 3.0962 1.9851 5.225 0 7.4832-4.5141 9.1279-8.8365 9.612 0.70458 0.61275 1.3126 1.7737 1.3126 3.6124 0 2.6125-0.03167 4.7092-0.03167 5.354 0 0.51616 0.35229 1.1293 1.3126 0.93575 7.6839-2.5808 13.223-9.8701 13.223-18.482 0.031666-10.773-8.6446-19.482-19.306-19.482z" clip-rule="evenodd" fill="#24292f" fill-rule="evenodd" stroke-width=".39583"/>
</svg>
