<svg xmlns="http://www.w3.org/2000/svg" viewBox="0 0 48 48" style="width: 100%; height: 100%;">
  <g transform="matrix(1.2331 0 0 1.2331 59.927 -5.4637)">
    <path d="m-13.673 20.673-0.0448-0.1146-4.3503-11.351c-0.0884-0.22262-0.2449-0.41163-0.447-0.54005-0.2037-0.12855-0.4422-0.19072-0.6827-0.17792s-0.4711 0.099932-0.66 0.24937c-0.1871 0.15003-0.322 0.35532-0.3855 0.58658l-2.9412 9.0013h-11.899l-2.9411-9.0013c-0.06351-0.23126-0.19843-0.43655-0.38551-0.58658-0.18807-0.15045-0.41853-0.23824-0.65902-0.25105-0.2405-0.012815-0.47898 0.049989-0.68197 0.1796-0.20303 0.1279-0.36014 0.31702-0.44866 0.54005l-4.3553 11.366-0.04487 0.113c-0.6252 1.637-0.70205 3.4327-0.219 5.1171s1.4999 3.1665 2.8976 4.2233l0.01662 0.0116 0.03822 0.0299 6.6351 4.9668 3.2801 2.4843 1.9941 1.5104c0.2342 0.177 0.5198 0.2728 0.8134 0.2728 0.2935 0 0.5791-0.0958 0.8134-0.2728l1.994-1.5104 3.2818-2.4843 6.6734-4.9967 0.0182-0.0133c1.4025-1.0558 2.4234-2.5391 2.9087-4.2262 0.4854-1.687 0.4087-3.4861-0.2184-5.1258z" fill="#e24329"/>
    <path d="m-13.673 20.673-0.0448-0.1146c-2.1217 0.4372-4.121 1.3364-5.8558 2.6337l-9.5531 7.24c3.2569 2.4627 6.0918 4.6029 6.0918 4.6029l6.6733-4.9967 0.0183-0.0133c1.399-1.0584 2.4159-2.543 2.8976-4.2298 0.4817-1.6869 0.4019-3.4846-0.2273-5.1222z" fill="#fc6d26"/>
    <path d="m-35.227 35.035 3.2752 2.4843 1.994 1.5104c0.2343 0.177 0.5198 0.2728 0.8134 0.2728s0.5792-0.0958 0.8134-0.2728l1.994-1.5104 3.2819-2.4843s-2.8349-2.1402-6.0918-4.6029z" fill="#fca326"/>
    <path d="m-38.7 23.198c-1.7344-1.2978-3.7339-2.1965-5.8558-2.6321l-0.04487 0.113c-0.62681 1.6378-0.7045 3.4349-0.22139 5.1207s1.5009 3.169 2.9 4.2263l0.01662 0.0116 0.03822 0.0299 6.6351 4.9668 6.105-4.6029z" fill="#fc6d26"/>
  </g>
</svg>
