<svg xmlns="http://www.w3.org/2000/svg" viewBox="0 0 48 48" style="width: 100%; height: 100%;">
  <path d="m40.15 5h-32.3a2.85 2.85 0 0 0-2.85 2.85v32.3a2.85 2.85 0 0 0 2.85 2.85h32.3a2.85 2.85 0 0 0 2.85-2.85v-32.3a2.85 2.85 0 0 0-2.85-2.85zm-23.75 32.3h-5.7v-17.1h5.7zm-2.85-20.425a3.325 3.325 0 1 1 3.42-3.325 3.382 3.382 0 0 1-3.42 3.325zm23.75 20.425h-5.7v-9.006c0-2.698-1.14-3.667-2.622-3.667a3.306 3.306 0 0 0-3.078 3.534 1.254 1.254 0 0 0 0 0.266v8.873h-5.7v-17.1h5.51v2.47a5.909 5.909 0 0 1 5.13-2.66c2.945 0 6.384 1.634 6.384 6.954z" fill="#0a66c2" stroke-width="1.9"/>
</svg>
