<svg xmlns="http://www.w3.org/2000/svg" viewBox="0 0 48 48" style="width: 100%; height: 100%;">
  <path d="m40 12h-18l-4-4h-10c-2.2 0-4 1.8-4 4v8h40v-4c0-2.2-1.8-4-4-4z" fill="#FFA000"/>
  <path d="m40 12h-32c-2.2 0-4 1.8-4 4v20c0 2.2 1.8 4 4 4h32c2.2 0 4-1.8 4-4v-20c0-2.2-1.8-4-4-4z" fill="#FFCA28"/>
  <path d="m38 28c-4.0262-0.18464-7.7472 2.6333-9.2522 6.2712-1.0193 2.325-1.0523 5.0415-0.07123 7.385 1.6001 4.499 6.8181 7.0841 11.412 6.1566 2.1252-0.41715 4.0482-1.6415 5.4991-3.225 3.4228-3.9273 3.1308-10.615-0.87469-14.039-1.8577-1.5974-4.2483-2.5674-6.7125-2.5486z" fill="#3f51b5"/>
  <path d="m32 36h9v4h-9v-4zm12.325 2c-1.9048 1.6667-3.8095 3.3333-5.7143 5v-10c1.9048 1.6667 3.8095 3.3333 5.7143 5z" fill="#fff" stroke-width=".3721"/>
</svg>
