<svg xmlns="http://www.w3.org/2000/svg" viewBox="0 0 48 48" fill="#000000" style="width: 100%; height: 100%;">
  <path fill="#00ACC1" d="M7,17.801c1-2.601,2-5.2,3.399-7.601C11,8.8,12,7,23.399,7C32,7,39.399,7,41,7v6h-7.4c-2,21.4-1.199,22,2.201,22c2.199,0,3.8-3.4,3.8-5.199H41C41,39.602,36.6,41,33.199,41C29.399,41,27,38.201,27,34.001C27,28.6,28.2,22.4,29.2,13H22c-2,21.4-2.4,28-9.001,28C11.4,41,9,39.8,9,36.801c0-6,7.2,1.2,9.199-23.801c0,0-1.999,0-2.999,0c-2.601,0-4.6,1-6.2,4C8.6,17.801,8.199,18.199,7,17.801z"/>
</svg>
