<svg xmlns="http://www.w3.org/2000/svg" viewBox="0 0 48 48" style="width: 100%; height: 100%;">
  <path d="m12.001 5.9887c-3.4086-0.098712-6.3334 3.1366-6 6.5091 0.00519 7.933-0.0104 15.866 0.00782 23.799 0.080682 3.2941 3.2414 6.0057 6.5013 5.6917 7.933-0.0052 15.866 0.0104 23.799-0.0078 3.2941-0.08068 6.0057-3.2414 5.6917-6.5013v-5.9499h-4c-0.02551 2.2866 0.05208 4.5784-0.0407 6.8616-0.26531 1.5407-1.9216 1.6897-3.1812 1.5974h-22.778c-1.7019 0.03813-2.1645-1.7546-2-3.1201v-22.88c-0.038786-1.6912 1.7406-2.1657 3.1018-2h9.238v-4h-10.34z" fill="#607d8b"/>
  <path d="m32.872 3.9887v6.39c-4.8459 0.17165-9.6325 2.4765-12.512 6.4273-3.2515 4.3245-4.3602 9.8658-4.3588 15.183 0.74877 1e-6 1.5033-1e-6 2.2485 0 0.77771-4.4847 4.472-7.9076 8.5492-9.5716 1.9275-0.81167 3.9835-1.3416 6.0734-1.4795v6.8927c3.7096-4.1023 7.4193-8.2045 11.129-12.307-3.7096-3.845-7.4193-7.6899-11.129-11.535z" fill="#2196f3" stroke-width=".57388"/>
</svg>
