<svg xmlns="http://www.w3.org/2000/svg" viewBox="0 0 48 48" style="width: 100%; height: 100%;">
  <path d="m17 35h14l-7 7-7-7zm5-8h4v12h-4v-12z" fill="#3f51b5"/>
  <path d="m8.0173 23v2.9888c10.658 6.64e-4 21.315 0.0013 31.973 2e-3v-2.9908h3.9966c-0.06975 1.452 0.18604 2.9488-0.24287 4.3578-0.61227 1.7974-2.5613 2.8216-4.4029 2.6162-10.51-0.0035-21.02 7e-3 -31.529-0.0052-2.2234-0.05293-4.0262-2.1989-3.7912-4.3845v-2.5843h3.9966z" fill="#90caf9" stroke-width=".99772"/>
  <g fill="#43a047">
    <path d="m17 11h14v4h-14v-4z"/>
    <path d="m22 6h4v14h-4v-14z"/>
  </g>
</svg>
