<svg xmlns="http://www.w3.org/2000/svg" viewBox="0 0 48 48" style="width: 100%; height: 100%;">
  <path d="m24 6c-6.331 0-11.281 5.433-11.488 5.664l-1.199 1.336 1.199 1.336c0.207 0.231 5.157 5.664 11.488 5.664s11.28-5.433 11.488-5.664l1.2-1.336-1.199-1.336c-0.209-0.231-5.158-5.664-11.489-5.664z" fill="#90a4ae"/>
  <path d="m24 8c-5.512 0-10 5-10 5s4.488 5 10 5c5.512 0 10-5 10-5s-4.488-5-10-5z" fill="#fff"/>
  <path d="m24 8c-1.271 0-2.483 0.219-3.603 0.546-0.861 0.897-1.397 2.11-1.397 3.454 0 2.765 2.24 5 5 5 2.76 0 5-2.235 5-5 0-1.344-0.536-2.557-1.396-3.454-1.121-0.327-2.333-0.546-3.604-0.546z" fill="#009688"/>
  <path d="m24 10a2 2 0 1 0 0 4 2 2 0 1 0 0-4z" fill="#263238"/>
  <path d="m24 10c0-0.552 0.448-1 1-1s1 0.448 1 1c0 0.552-0.448 1-1 1s-1-0.448-1-1" fill="#fff"/>
  <path d="m17 35h14l-7 7-7-7zm5-8h4v12h-4v-12z" fill="#3f51b5"/>
  <path d="m8.0173 23v2.9888c10.658 6.64e-4 21.315 0.0013 31.973 2e-3v-2.9908h3.9966c-0.06975 1.452 0.18604 2.9488-0.24287 4.3578-0.61227 1.7974-2.5613 2.8216-4.4029 2.6162-10.51-0.0035-21.02 7e-3 -31.529-0.0052-2.2234-0.05293-4.0262-2.1989-3.7912-4.3845v-2.5843h3.9966z" fill="#90caf9" stroke-width=".99772"/>
</svg>
