<svg xmlns="http://www.w3.org/2000/svg" viewBox="0 0 48 48" style="width: 100%; height: 100%;">
  <g stroke-width=".82355">
    <path d="m30.739 8.5554-2.2936-2.2935c-0.3492-0.34918-0.91581-0.34918-1.2642 0l-1.0813 1.0805 3.5595 3.5593 1.0797-1.0813c0.34838-0.34918 0.34838-0.91494 0-1.2649" fill="#e57373"/>
    <path d="m18.197 15.242 6.1227-6.1227 3.56 3.5597-6.1227 6.1227z" fill="#ff9800"/>
    <path d="m29.661 10.902-1.7791 1.7801-3.561-3.5587 1.7791-1.7801z" fill="#b0bec5"/>
    <path d="m18.199 15.243-1.1983 4.7567 4.7561-1.1974z" fill="#ffc107"/>
    <path d="m17.605 17.595-0.6045 2.4047 2.4048-0.60529z" fill="#37474f"/>
  </g>
  <path d="m17 35h14c-2.3333 2.3333-4.6667 4.6667-7 7-2.3333-2.3333-4.6667-4.6667-7-7zm5-8h4v12h-4v-12z" fill="#3f51b5"/>
  <path d="m8.0173 23v2.9888c10.658 6.64e-4 21.315 0.0013 31.973 2e-3v-2.9908h3.9966c-0.06975 1.452 0.18604 2.9488-0.24287 4.3578-0.61227 1.7974-2.5613 2.8216-4.4029 2.6162-10.51-0.0035-21.02 7e-3 -31.529-0.0052-2.2234-0.05293-4.0262-2.1989-3.7912-4.3845v-2.5843h3.9966z" fill="#90caf9" stroke-width=".99772"/>
</svg>
