<svg xmlns="http://www.w3.org/2000/svg" viewBox="0 0 48 48" style="width: 100%; height: 100%;">
  <path fill="#9C27B0" d="M18.991 15.973L24 6h8l-8 15 8 15h-8l-5-10-5 10H6l8-15L6 6h8L18.991 15.973zM42 42h-6.799v-1.489l3.131-3.331c.772-.89 1.158-1.596 1.158-2.119 0-.424-.091-.748-.274-.969-.183-.221-.448-.331-.796-.331-.344 0-.623.147-.837.442-.214.297-.321.665-.321 1.107H35c0-.605.149-1.163.448-1.676.299-.512.714-.912 1.245-1.201S37.817 32 38.473 32c1.054 0 1.864.246 2.434.738.568.492.853 1.198.853 2.119 0 .389-.071.766-.214 1.134s-.365.754-.666 1.158c-.301.403-.786.944-1.455 1.621l-1.258 1.469H42V42z"/>
</svg>
