<svg xmlns="http://www.w3.org/2000/svg" viewBox="0 0 48 48" style="width: 100%; height: 100%;">
  <polygon fill="#9c27b0" points="18.991,19.973 24,10 32,10 24,25 32,40 24,40 19,30 14,40 6,40 14,25 6,10 14,10"/>
  <path fill="#9c27b0" d="M42,14h-6.799v-1.489l3.131-3.331c0.772-0.89,1.158-1.596,1.158-2.119	c0-0.424-0.091-0.748-0.274-0.969s-0.448-0.331-0.796-0.331c-0.344,0-0.623,0.147-0.837,0.442C37.369,6.5,37.262,6.868,37.262,7.31	H35c0-0.605,0.149-1.163,0.448-1.676c0.299-0.512,0.714-0.912,1.245-1.201S37.817,4,38.473,4c1.054,0,1.864,0.246,2.434,0.738	c0.568,0.492,0.853,1.198,0.853,2.119c0,0.389-0.071,0.766-0.214,1.134s-0.365,0.754-0.666,1.158	c-0.301,0.403-0.786,0.944-1.455,1.621l-1.258,1.469H42V14z"/>
</svg>
