<svg xmlns="http://www.w3.org/2000/svg" viewBox="0 0 48 48" fill="#000000" style="width: 100%; height: 100%;">
  <path fill="#81d4fa" d="M2.799,41h42.401L24,6.895L2.799,41z"/>
  <path fill="#039be5" d="M24,8.788L43.402,40H4.598L24,8.788 M24,5L1,42h46L24,5L24,5z"/>
  <path fill="#fff" d="M37.1,28c0,0-4.181,7-13.1,7s-13.1-7-13.1-7s4.181-7,13.1-7S37.1,28,37.1,28z"/>
  <path fill="#039be5" d="M24,36c-9.378,0-13.776-7.182-13.958-7.487c-0.189-0.315-0.189-0.71,0-1.025 C10.224,27.182,14.622,20,24,20s13.776,7.182,13.958,7.487c0.189,0.315,0.189,0.71,0,1.025C37.776,28.818,33.378,36,24,36z M12.108,28.004C13.234,29.554,17.07,34,24,34c6.874,0,10.761-4.47,11.892-6.004C34.764,26.444,30.929,22,24,22 C17.126,22,13.239,26.471,12.108,28.004z"/>
  <path fill="#00acc1" d="M24 22A6 6 0 1 0 24 34A6 6 0 1 0 24 22Z"/>
  <path d="M24 25A3 3 0 1 0 24 31A3 3 0 1 0 24 25Z"/>
  <path fill="#fff" d="M26 25A1 1 0 1 0 26 27A1 1 0 1 0 26 25Z"/>
</svg>
