<svg xmlns="http://www.w3.org/2000/svg" viewBox="0 0 48 48" style="width: 100%; height: 100%;">
  <path d="m40 12h-18l-4-4h-10c-2.2 0-4 1.8-4 4v8h40v-4c0-2.2-1.8-4-4-4z" fill="#FFA000"/>
  <path d="m40 12h-32c-2.2 0-4 1.8-4 4v20c0 2.2 1.8 4 4 4h32c2.2 0 4-1.8 4-4v-20c0-2.2-1.8-4-4-4z" fill="#FFCA28"/>
  <path d="m35.825 48v-11.961h4.3496v11.961h-4.3496zm2.1748-16c1.8123 2.0712 3.6247 4.1425 5.437 6.2137h-10.874c1.8123-2.0712 3.6247-4.1425 5.437-6.2137z" fill="#009688" stroke-width=".39668"/>
  <path d="m28 28h20v2.5h-20v-2.5z" fill="#009688" stroke-width="1.0206"/>
</svg>
