<svg xmlns="http://www.w3.org/2000/svg" viewBox="0 0 48 48" style="width: 100%; height: 100%;">
  <circle cx="24" cy="24" r="20" fill="#1565c0"/>
  <path fill="#fff" d="M32,17H12c-1.105,0-2,0.895-2,2v14c0,1.105,0.895,2,2,2h20c1.105,0,2-0.895,2-2V19	C34,17.895,33.105,17,32,17z M12,31c0-2.112,1.314-3.909,3.166-4.642C14.461,25.809,14,24.962,14,24c0-1.657,1.343-3,3-3	s3,1.343,3,3c0,0.962-0.461,1.809-1.166,2.358C20.686,27.091,22,28.888,22,31H12z M31,31h-7v-2h7V31z M31,27h-7v-2h7V27z M31,23h-7	v-2h7V23z"/>
  <path fill="#fff" d="M36,13H16c-1.105,0-2,0.895-2,2h19c1.657,0,3,1.343,3,3v13c1.105,0,2-0.895,2-2V15	C38,13.895,37.105,13,36,13z"/>
</svg>
