<svg xmlns="http://www.w3.org/2000/svg" viewBox="0 0 19.974306 19.974306" fill="currentColor">
  <path d="m 8.8743056,0.06921528 c -4.6,0.5 -8.30000004,4.20000002 -8.80000004,8.70000002 -0.6,4.9999997 2.50000004,9.2999997 6.90000004,10.6999997 v -2.3 c 0,0 -0.4,0.1 -0.9,0.1 -1.4,0 -2,-1.2 -2.1,-1.9 -0.1,-0.4 -0.3,-0.7 -0.6,-1 -0.3,-0.1 -0.4,-0.1 -0.4,-0.2 0,-0.2 0.3,-0.2 0.4,-0.2 0.6,0 1.1,0.7 1.3,1 0.5,0.8 1.1,1 1.4,1 0.4,0 0.7,-0.1 0.9,-0.2 0.1,-0.7 0.4,-1.4 1,-1.8 -2.3,-0.5 -4,-1.8 -4,-3.9999998 0,-1.0999999 0.5,-2.1999999 1.2,-2.9999999 -0.1,-0.2 -0.2,-0.7 -0.2,-1.4 0,-0.4 0,-1 0.3,-1.6 0,0 1.4,0 2.8,1.3 0.5,-0.2 1.2,-0.3 1.9,-0.3 0.7000004,0 1.4000004,0.1 2.0000004,0.3 1.3,-1.3 2.8,-1.3 2.8,-1.3 0.2,0.6 0.2,1.2 0.2,1.6 0,0.8 -0.1,1.2 -0.2,1.4 0.7,0.8 1.2,1.8 1.2,2.9999999 0,2.1999998 -1.7,3.4999998 -4,3.9999998 0.6,0.5 1,1.4 1,2.3 v 3.3 c 4.1,-1.3 7,-5.1 7,-9.5 0,-5.9999997 -5.1,-10.69999972 -11.1000004,-9.99999972 z"/>
</svg>
