<svg xmlns="http://www.w3.org/2000/svg" viewBox="0 0 512 512" fill="currentColor">
  <path d="M 256,0 C 397.29,0 512,114.71 512,256 512,397.29 397.29,512 256,512 114.71,512 0,397.29 0,256 0,114.71 114.71,0 256,0 Z M 175.963,399.871 V 199.95 h -66.464 v 199.921 z m 239.62,0 V 285.225 c 0,-61.409 -32.787,-89.976 -76.509,-89.976 -35.255,0 -51.047,19.389 -59.889,33.007 V 199.95 h -66.447 c 0.881,18.757 0,199.921 0,199.921 h 66.446 v -111.65 c 0,-5.976 0.43,-11.95 2.191,-16.221 4.795,-11.935 15.737,-24.299 34.095,-24.299 24.034,0 33.663,18.34 33.663,45.204 V 399.871 Z M 143.18,103.55 c -22.74,0 -37.597,14.95 -37.597,34.545 0,19.182 14.405,34.544 36.717,34.544 h 0.429 c 23.175,0 37.6,-15.362 37.6,-34.544 C 179.899,118.5 165.905,103.55 143.18,103.55 Z"/>
</svg>
