<svg xmlns="http://www.w3.org/2000/svg" viewBox="0 0 24 24" fill="currentColor">
  <path d="M 4 2 C 2.9069372 2 2 2.9069372 2 4 L 2 20 C 2 21.093063 2.9069372 22 4 22 L 20 22 C 21.093063 22 22 21.093063 22 20 L 22 4 C 22 2.9069372 21.093063 2 20 2 L 4 2 z M 4 4 L 8 4 L 8 8 L 4 8 L 4 4 z M 10 4 L 14 4 L 14 8 L 10 8 L 10 4 z M 16 4 L 20 4 L 20 8 L 16 8 L 16 4 z M 4 10 L 8 10 L 8 14 L 4 14 L 4 10 z M 10 10 L 14 10 L 14 14 L 10 14 L 10 10 z M 16 10 L 20 10 L 20 14 L 16 14 L 16 10 z M 4 16 L 8 16 L 8 20 L 4 20 L 4 16 z M 10 16 L 14 16 L 14 20 L 10 20 L 10 16 z M 16 16 L 20 16 L 20 20 L 16 20 L 16 16 z"/>
</svg>
