<svg xmlns="http://www.w3.org/2000/svg" viewBox="0 0 24 24" fill="currentColor">
  <path d="M 6 2 C 4.9057453 2 4 2.9057453 4 4 L 4 20 C 4 21.094255 4.9057453 22 6 22 L 18 22 C 19.094255 22 20 21.094255 20 20 L 20 8 L 14 2 L 6 2 z M 6 4 L 13 4 L 13 9 L 18 9 L 18 20 L 6 20 L 6 4 z M 10 11.810547 L 6.7929688 15.017578 L 10 18.224609 L 11 17.224609 L 8.7929688 15.017578 L 11 12.810547 L 10 11.810547 z M 14 11.810547 L 13 12.810547 L 15.207031 15.017578 L 13 17.224609 L 14 18.224609 L 17.207031 15.017578 L 14 11.810547 z"/>
</svg>
