<svg xmlns="http://www.w3.org/2000/svg" viewBox="0 0 48 48" style="fill:#000000;">
  <path fill="#AB6400" d="M10 7H38V14H10z"/>
  <path fill="#8A5100" d="M10 21L6 21 6 13 10 7zM38 21L42 21 42 13 38 7z"/>
  <path fill="#4FC3F7" d="M39 14L15 14 32 5z"/>
  <path fill="#81D4FA" d="M36 14L10 14 26 3z"/>
  <path fill="#B3E5FC" d="M33 14L9 14 15 2z"/>
  <path fill="#FF9800" d="M40,41H8c-1.1,0-2-0.9-2-2V13h36v26C42,40.1,41.1,41,40,41z"/>
  <path fill="#8A5100" d="M27.5,20h-7c-0.8,0-1.5-0.7-1.5-1.5v0c0-0.8,0.7-1.5,1.5-1.5h7c0.8,0,1.5,0.7,1.5,1.5v0C29,19.3,28.3,20,27.5,20z"/>
</svg>
