<svg xmlns="http://www.w3.org/2000/svg" viewBox="0 0 48 48" style="fill:#000000;">
  <path fill="#00ACC1" d="M36,7v8c-0.26,0-0.054,0.24-0.444,0.24c-0.384,0-0.511-0.13-0.638-0.52c0-0.266-0.127-0.398-0.127-0.662C34.021,11.186,32.829,10,30,10c-3.849,0-10.531,0-10.658,0c-0.128,0-0.382-0.037-0.382,0.225c3.077,4.186,5.81,8.018,9.021,12.202C24.254,26.873,16.807,36,16.807,36s8.987,0,13.737,0c2.394,0,4.555-1.496,5.272-3.37c0.129-0.26,0.256-0.39,0.256-0.649C36.453,30.277,38,30.537,38,30.537L36.072,41c0,0-25.944,0-26.334,0c-0.384,0-0.641-0.26-0.641-0.39c4.623-5.628,8.988-10.983,13.619-16.61C18.086,18.242,9.098,7,9.098,7H36z"/>
</svg>
