<svg xmlns="http://www.w3.org/2000/svg" viewBox="0 0 24 24" fill="currentColor">
  <path d="M 6 2 C 4.9069372 2 4 2.9069372 4 4 L 4 5 L 3 5 C 2.448 5 2 5.448 2 6 C 2 6.552 2.448 7 3 7 L 4 7 L 4 9 L 3 9 C 2.448 9 2 9.448 2 10 C 2 10.552 2.448 11 3 11 L 4 11 L 4 13 L 3 13 C 2.448 13 2 13.448 2 14 C 2 14.552 2.448 15 3 15 L 4 15 L 4 17 L 3 17 C 2.448 17 2 17.448 2 18 C 2 18.552 2.448 19 3 19 L 4 19 L 4 20 C 4 21.093063 4.9069372 22 6 22 L 18 22 C 19.093063 22 20 21.093063 20 20 L 20 4 C 20 2.9069372 19.093063 2 18 2 L 6 2 z M 6 4 L 18 4 L 18 20 L 6 20 L 6 4 z M 8 7 L 8 9 L 16 9 L 16 7 L 8 7 z M 8 11 L 8 13 L 16 13 L 16 11 L 8 11 z"/>
</svg>
