<svg xmlns="http://www.w3.org/2000/svg" viewBox="0 0 48 48" fill="currentColor" style="width: 100%; height: 100%;">
  <path d="m8.25 12.188c0-3.4172 2.7703-6.1875 6.1875-6.1875h21.375c2.1727 0 3.9375 1.7648 3.9375 3.9375v20.25c0 1.568-0.92109 2.925-2.25 3.5578v4.8797h0.5625c0.93516 0 1.6875 0.75234 1.6875 1.6875s-0.75234 1.6875-1.6875 1.6875h-24.188c-3.1078 0-5.625-2.5172-5.625-5.625 0-0.18984 7e-3 -0.37969 0.0281-0.5625h-0.0281zm5.625 21.938c-1.2445 0-2.25 1.0055-2.25 2.25s1.0055 2.25 2.25 2.25h20.25v-4.5zm-2.25-2.9039c0.68906-0.30234 1.4484-0.47109 2.25-0.47109h21.938c0.30938 0 0.5625-0.25312 0.5625-0.5625v-20.25c0-0.30937-0.25312-0.5625-0.5625-0.5625h-21.375c-1.5539 0-2.8125 1.2586-2.8125 2.8125zm7.3125-17.346h12.375c0.93516 0 1.6875 0.75234 1.6875 1.6875s-0.75234 1.6875-1.6875 1.6875h-12.375c-0.93516 0-1.6875-0.75234-1.6875-1.6875s0.75234-1.6875 1.6875-1.6875zm0 5.625h12.375c0.93516 0 1.6875 0.75234 1.6875 1.6875s-0.75234 1.6875-1.6875 1.6875h-12.375c-0.93516 0-1.6875-0.75234-1.6875-1.6875s0.75234-1.6875 1.6875-1.6875z" stroke-width=".070312"/>
</svg>
