<svg xmlns="http://www.w3.org/2000/svg" viewBox="0 0 48 48" fill="currentColor" style="width: 100%; height: 100%;">
  <path d="m24 6c0.93516 0 1.6875 0.75234 1.6875 1.6875v14.625h14.625c0.93516 0 1.6875 0.75234 1.6875 1.6875s-0.75234 1.6875-1.6875 1.6875h-14.625v14.625c0 0.93516-0.75234 1.6875-1.6875 1.6875s-1.6875-0.75234-1.6875-1.6875v-14.625h-14.625c-0.93516 0-1.6875-0.75234-1.6875-1.6875s0.75234-1.6875 1.6875-1.6875h14.625v-14.625c0-0.93516 0.75234-1.6875 1.6875-1.6875zm10.125 2.25c0.93516 0 1.6875 0.75234 1.6875 1.6875v2.25h2.25c0.93516 0 1.6875 0.75234 1.6875 1.6875s-0.75234 1.6875-1.6875 1.6875h-2.25v2.25c0 0.93516-0.75234 1.6875-1.6875 1.6875s-1.6875-0.75234-1.6875-1.6875v-2.25h-2.25c-0.93516 0-1.6875-0.75234-1.6875-1.6875s0.75234-1.6875 1.6875-1.6875h2.25v-2.25c0-0.93516 0.75234-1.6875 1.6875-1.6875zm-24.23 21.895c0.66094-0.66094 1.7297-0.66094 2.3836 0l1.5961 1.5961 1.5891-1.5891c0.66094-0.66093 1.7297-0.66093 2.3836 0 0.6539 0.66094 0.66093 1.7297 0 2.3836l-1.5891 1.5891 1.5891 1.5891c0.66093 0.66094 0.66093 1.7297 0 2.3836-0.66094 0.6539-1.7297 0.66093-2.3836 0l-1.5891-1.5891-1.5891 1.5961c-0.66094 0.66093-1.7297 0.66093-2.3836 0-0.6539-0.66094-0.66093-1.7297 0-2.3836l1.5891-1.5961-1.5961-1.5891c-0.66093-0.66094-0.66093-1.7297 0-2.3836zm0.60469-17.958h6.75c0.93516 0 1.6875 0.75234 1.6875 1.6875s-0.75234 1.6875-1.6875 1.6875h-6.75c-0.93516 0-1.6875-0.75234-1.6875-1.6875s0.75234-1.6875 1.6875-1.6875zm20.25 17.438h6.75c0.93516 0 1.6875 0.75234 1.6875 1.6875s-0.75234 1.6875-1.6875 1.6875h-6.75c-0.93516 0-1.6875-0.75234-1.6875-1.6875s0.75234-1.6875 1.6875-1.6875zm0 5.625h6.75c0.93516 0 1.6875 0.75234 1.6875 1.6875s-0.75234 1.6875-1.6875 1.6875h-6.75c-0.93516 0-1.6875-0.75234-1.6875-1.6875s0.75234-1.6875 1.6875-1.6875z" stroke-width=".070312"/>
</svg>
