<svg xmlns="http://www.w3.org/2000/svg" viewBox="0 0 48 48" fill="currentColor" style="width: 100%; height: 100%;">
  <path d="m29.604 20.651h-3.3808v-3.3807c0-0.61988-0.50704-1.1269-1.1269-1.1269h-2.2538c-0.6198 0-1.1269 0.50711-1.1269 1.1269v3.3807h-3.3807c-0.6198 0-1.1269 0.50711-1.1269 1.0635v2.3172c0 0.6196 0.50704 1.0635 1.1269 1.0635h3.3807v3.3807c0 0.6832 0.50712 1.1903 1.1269 1.1903h2.2538c0.61987 0 1.1269-0.50718 1.1269-1.1269v-3.3807h3.3808c0.6198-0.0634 1.1269-0.50711 1.1269-1.1269v-2.3172c0-0.55642-0.50711-1.0635-1.1269-1.0635zm-5.6346-12.459c-9.9591 0-17.967 6.5594-17.967 14.65 0 3.354 1.4023 6.4269 3.7266 8.8956-1.0473 2.7821-3.2307 5.1331-3.2659 5.1592-0.46647 0.49303-0.58972 1.215-0.3256 1.8312 0.21122 0.67967 0.8144 1.0811 1.492 1.0811 4.3309 0 7.6842-1.8136 9.7971-3.2575 2.0334 0.63389 4.2372 1.0037 6.5431 1.0037 9.9591-0.0634 18.031-6.5572 18.031-14.713 0-8.156-8.0715-14.65-18.031-14.65zm0 25.982c-1.8841 0-3.7414-0.29054-5.5191-0.85364l-1.6023-0.50183-1.3727 0.96809c-1.0036 0.71277-2.3855 1.5058-4.0491 2.0425 0.5193-0.85364 1.0121-1.8136 1.3995-2.8349l0.74799-1.9721-1.4523-1.5411c-1.2657-1.3572-2.7976-3.597-2.7976-6.5762 0-6.2156 6.5671-11.269 14.587-11.269 8.0786 0 14.586 5.0535 14.586 11.269s-6.4417 11.269-14.527 11.269z" stroke-width=".070432"/>
</svg>
