<svg xmlns="http://www.w3.org/2000/svg" viewBox="0 0 48 48" fill="currentColor" style="width: 100%; height: 100%;">
  <path d="m17.82 33.055c-1.0541-0.37947-2.2276-0.21784-3.1341 0.44974-0.57623 0.42164-1.5671 1.04-2.7687 1.5952 0.39353-1.033 0.6957-2.1995 0.79408-3.4714 0.0703-0.90651-0.2319-1.806-0.82921-2.4947-1.6374-1.8482-2.5087-4.0126-2.5087-6.2613 0-5.5866 5.8537-11.244 14.617-11.244s14.617 5.6569 14.617 11.244-5.8537 11.244-14.617 11.244c-2.2206 0-4.3077-0.3865-6.1699-1.0611zm-9.9716 2.7336c-0.11243 0.18974-0.2319 0.37947-0.35839 0.56921l-0.0211 0.0351c-0.11243 0.16163-0.22487 0.32326-0.33731 0.48488-0.24595 0.33028-0.51298 0.65353-0.79407 0.94868-0.32326 0.32325-0.41461 0.8011-0.23893 1.2227 0.17568 0.42164 0.58326 0.6957 1.04 0.6957 0.35839 0 0.71678-0.0211 1.0752-0.0562l0.0492-7e-3c0.3092-0.0351 0.61839-0.0773 0.92759-0.13351 0.0562-7e-3 0.11244-0.0211 0.16865-0.0351 1.2508-0.24595 2.4525-0.66758 3.5206-1.1314 1.6092-0.70272 2.9796-1.539 3.8158-2.1503 2.2347 0.80813 4.7082 1.2579 7.3153 1.2579 9.9365 0 17.99-6.5424 17.99-14.617s-8.0743-14.617-18.011-14.617-17.99 6.5424-17.99 14.617c0 3.1693 1.2438 6.0996 3.352 8.4959-0.13352 1.7217-0.80111 3.2536-1.5038 4.4201zm22.101-18.889c-1.033-1.033-2.7125-1.033-3.7455 0l-1.0471 1.0541 3.7455 3.7455 1.0471-1.047c1.033-1.033 1.033-2.7125 0-3.7455zm-11.433 7.6948c-0.28812 0.28812-0.49191 0.64651-0.59029 1.0471l-0.6465 2.572c-0.0984 0.3865 0.014 0.78705 0.29514 1.0681 0.28109 0.28109 0.68164 0.39353 1.0681 0.29514l2.572-0.6465c0.39353-0.0984 0.75895-0.30217 1.0471-0.59029l5.0526-5.0526-3.7455-3.7455z" stroke-width=".070272"/>
</svg>
