<svg xmlns="http://www.w3.org/2000/svg" viewBox="0 0 48 48" fill="currentColor" style="width: 100%; height: 100%;">
  <path d="m15.985 38.113c-0.57936-0.46124-0.68624-1.3218-0.23624-1.9181l2.4187-3.2231v-3.1275c0-0.33187 0.11812-0.64686 0.32062-0.89436l3.5043-4.1962-7.2955 6.6599c-3.2073 3.3637-8.6961 0.97873-8.6961-3.78 0-2.6943 1.9136-4.9612 4.4634-5.2987l8.6033-1.3444-2.295-2.3006c-0.43874-0.43874-0.52874-1.1306-0.21937-1.6762l1.3444-2.3473-2.1487-2.862c-0.45-0.59849-0.34312-1.458 0.23624-1.9201 0.58499-0.46214 1.4175-0.35178 1.8675 0.24654l2.7 3.595c0.33187 0.44268 0.37124 0.99843 0.0956 1.5328l-1.2712 2.2162 2.7731 2.8293v-2.1487c0-0.83812 0.62437-1.5412 1.35-1.7437v-3.2152c0-0.24862 0.25312-0.45 0.45-0.45 0.29812 0 0.44999 0.20138 0.44999 0.45v3.2152c0.82686 0.2025 1.35 0.90561 1.35 1.7437v2.1487l2.8743-2.8293-1.2712-2.2162c-0.27562-0.53436-0.23625-1.0901 0.0956-1.5328l2.7-3.595c0.45-0.59827 1.2825-0.70863 1.8675-0.24648 0.57936 0.46208 0.68624 1.3216 0.23624 1.9201l-2.1487 2.862 1.3444 2.3473c0.30937 0.54561 0.21937 1.2375-0.21937 1.6762l-2.295 2.3006 8.6005 1.3444c2.5031 0.33187 4.4662 2.6043 4.4662 5.2987 0 4.7587-5.4899 7.1436-8.6961 3.78l-7.2955-6.6599 3.4537 4.1962c0.25312 0.2475 0.37124 0.56249 0.37124 0.89436v3.5212l2.3625 2.7618c0.48937 0.56249 0.43875 1.4287-0.11249 1.9293-0.55125 0.50062-1.395 0.45-1.8787-0.11812l-2.7-3.1443c-0.21937-0.25312-0.33749-0.57374-0.33749-0.90561v-3.5381l-1.4175-1.6425v3.8306c0 0.99561-0.75374 1.8-1.8 1.8-0.94499 0-1.8-0.80436-1.8-1.8v-3.8306l-1.3162 1.6425v3.0881c0 0.29812-0.10125 0.59624-0.28124 0.83248l-2.7 3.6c-0.45 0.59624-1.2825 0.70312-1.8675 0.24187zm-3.24-8.5668c0.045-0.045 0.09-0.0844 0.135-0.12937l6.2493-5.7037-8.2478 1.2881c-0.0219 6e-3 -0.0444-0.0394-0.0664 0.0112-1.1109 0.14625-2.1144 1.1869-2.1144 2.6212 0 1.2094 0.68906 2.0981 1.521 2.4581 0.81674 0.35437 1.7584 0.25875 2.5233-0.54562zm16.127-5.833 6.2493 5.7037c0.045 0.045 0.09 0.0844 0.135 0.12937 0.76499 0.80437 1.7044 0.89999 2.475 0.54562 0.88312-0.35999 1.5694-1.2487 1.5694-2.4581 0-1.4344-1.0012-2.475-2.115-2.6212-0.0225-6e-3 -0.045-6e-3 -0.0675-0.0112z" stroke-width=".056249"/>
</svg>
