<svg xmlns="http://www.w3.org/2000/svg" viewBox="0 0 512 512" fill="currentColor" style="width: 100%; height: 100%;">
  <path d="m256.21 0.00808c-141.67 0-256.21 115.38-256.21 258.12 0 114.1 73.385 210.67 175.19 244.85 12.728 2.5698 17.391-5.5538 17.391-12.387 0-5.9838-0.41959-26.494-0.41959-47.866-71.272 15.387-86.113-30.768-86.113-30.768-11.454-29.914-28.424-37.602-28.424-37.602-23.327-15.811 1.6992-15.811 1.6992-15.811 25.875 1.7096 39.453 26.494 39.453 26.494 22.902 39.312 59.807 28.204 74.654 21.365 2.1188-16.667 8.9102-28.204 16.121-34.613-56.843-5.9838-116.65-28.204-116.65-127.35 0-28.204 10.174-51.279 26.295-69.226-2.5435-6.4087-11.454-32.908 2.5488-68.377 0 0 21.633-6.8386 70.41 26.494a246.33 246.33 0 0 1 64.055-8.5484c21.633 0 43.686 2.9945 64.05 8.5484 48.783-33.333 70.416-26.494 70.416-26.494 14.003 35.468 5.0871 61.967 2.5435 68.377 16.545 17.946 26.301 41.022 26.301 69.226 0 99.145-59.807 120.94-117.07 127.35 9.335 8.1183 17.391 23.5 17.391 47.861 0 34.613-0.4196 62.392-0.4196 70.935 0 6.8386 4.6675 14.962 17.391 12.398 101.8-34.193 175.19-130.77 175.19-244.87 0.4196-142.73-114.53-258.12-255.78-258.12z" clip-rule="evenodd" fill-rule="evenodd" stroke-width="5.2444"/>
</svg>
