<svg xmlns="http://www.w3.org/2000/svg" viewBox="0 0 24 24" fill="currentColor" style="width: 100%; height: 100%;">
  <path d="M 3.9902344 2.9902344 A 1.0001 1.0001 0 0 0 3.2929688 4.7070312 L 5.0761719 6.4902344 C 3.1443042 8.0417345 1.8915204 9.944007 1.2714844 11.060547 C 0.93948437 11.658547 0.95039063 12.378469 1.2753906 12.980469 C 2.4303906 15.118469 5.751 20 12 20 C 14.075568 20 15.806003 19.45473 17.242188 18.65625 L 19.292969 20.707031 A 1.0001 1.0001 0 1 0 20.707031 19.292969 L 4.7070312 3.2929688 A 1.0001 1.0001 0 0 0 3.9902344 2.9902344 z M 12 4 C 10.788 4 9.7057969 4.1997187 8.7167969 4.5117188 L 11.277344 7.0722656 C 11.514344 7.0372656 11.753 7 12 7 C 14.761 7 17 9.239 17 12 C 17 12.247 16.962734 12.485656 16.927734 12.722656 L 20.357422 16.152344 C 21.431422 14.960344 22.2175 13.751266 22.6875 12.947266 C 23.0415 12.343266 23.040078 11.601328 22.705078 10.986328 C 21.536078 8.8333281 18.219 4 12 4 z M 7.8339844 9.2480469 L 9.296875 10.710938 C 9.1081595 11.100829 9 11.536566 9 12 C 9 13.657 10.343 15 12 15 C 12.463434 15 12.899171 14.89184 13.289062 14.703125 L 14.753906 16.167969 C 13.760348 16.826761 12.520586 17.142418 11.199219 16.9375 C 9.1012188 16.6115 7.3885 14.898781 7.0625 12.800781 C 6.8576724 11.479996 7.1757565 10.241387 7.8339844 9.2480469 z"/>
</svg>
