<svg xmlns="http://www.w3.org/2000/svg" viewBox="0 0 24 24" fill="currentColor" style="width: 100%; height: 100%;">
  <g stroke-width=".9999">
    <path d="m3.0012 11.991c-0.049236 1.297 1.3674 2.3394 2.5905 1.9107 1.2525-0.33648 1.8318-1.9976 1.0594-3.04-0.69156-1.0978-2.4492-1.1601-3.2167-0.11394-0.27909 0.34992-0.43437 0.79566-0.43326 1.2432z"/>
    <path d="m10.001 11.991c-0.049236 1.297 1.3674 2.3394 2.5905 1.9107 1.2525-0.33648 1.8318-1.9976 1.0594-3.04-0.69156-1.0978-2.4492-1.1601-3.2167-0.11394-0.27909 0.34992-0.43437 0.79566-0.43326 1.2432z"/>
    <path d="m17.001 11.991c-0.04924 1.297 1.3674 2.3394 2.5905 1.9107 1.2525-0.33648 1.8318-1.9976 1.0594-3.04-0.69156-1.0978-2.4492-1.1601-3.2167-0.11394-0.27909 0.34992-0.43437 0.79566-0.43326 1.2432z"/>
  </g>
</svg>
