<svg xmlns="http://www.w3.org/2000/svg" viewBox="0 0 24 24" fill="currentColor" style="width: 100%; height: 100%;">
  <g stroke-width=".9999">
    <path d="m12.009 3.0008c-1.297-0.049236-2.3394 1.3674-1.9107 2.5905 0.33648 1.2525 1.9976 1.8318 3.04 1.0594 1.0978-0.69155 1.1601-2.4492 0.11394-3.2167-0.34992-0.27909-0.79566-0.43437-1.2432-0.43326z"/>
    <path d="m12.009 10.001c-1.297-0.049236-2.3394 1.3674-1.9107 2.5905 0.33648 1.2525 1.9976 1.8318 3.04 1.0594 1.0978-0.69156 1.1601-2.4492 0.11394-3.2167-0.34992-0.27909-0.79566-0.43437-1.2432-0.43326z"/>
    <path d="m12.009 17.001c-1.297-0.04924-2.3394 1.3674-1.9107 2.5905 0.33648 1.2525 1.9976 1.8318 3.04 1.0594 1.0978-0.69156 1.1601-2.4492 0.11394-3.2167-0.34992-0.27909-0.79566-0.43437-1.2432-0.43326z"/>
  </g>
</svg>
