<svg xmlns="http://www.w3.org/2000/svg" viewBox="0 0 24 24" fill="currentColor" style="width: 100%; height: 100%;">
  <path d="m18.25 10.124c0 1.7927-0.58194 3.4487-1.5623 4.7923l4.9446 4.9485c0.48821 0.48822 0.48821 1.2811 0 1.7693-0.48821 0.4882-1.2811 0.4882-1.7693 0l-4.9446-4.9485c-1.3436 0.98423-2.9996 1.5623-4.7923 1.5623-4.4876 0-8.1238-3.6362-8.1238-8.1238 0-4.4876 3.6362-8.1238 8.1238-8.1238 4.4876 0 8.1238 3.6362 8.1238 8.1238zm-8.1238 5.6242a5.6242 5.6242 0 1 0 0-11.248 5.6242 5.6242 0 1 0 0 11.248z" stroke-width=".039057"/>
</svg>
