<svg xmlns="http://www.w3.org/2000/svg" viewBox="0 0 20 16" fill="currentColor">
  <path d="M 15.860021,-6.690794e-8 V 3.7652879 c -0.123011,0 -0.02545,0.1131141 -0.209261,0.1131141 -0.180982,0 -0.240368,-0.062213 -0.299753,-0.2446093 0,-0.1258394 -0.0608,-0.1880522 -0.0608,-0.3124778 -0.361966,-1.3503006 -0.923295,-1.9088019 -2.2538,-1.9088019 -1.811241,0 -4.9558153,0 -5.0152004,0 -0.060799,0 -0.1795685,-0.018381 -0.1795685,0.1060446 1.4478615,1.9696005 2.7331209,3.7723578 4.2446089,5.7419584 -1.753269,2.0911984 -5.2583946,6.386709 -5.2583946,6.386709 0,0 4.2290556,0 6.4644746,0 1.126901,0 2.143514,-0.704135 2.480029,-1.586426 0.0608,-0.121598 0.121597,-0.18381 0.121597,-0.305408 0.178155,-0.801697 0.906328,-0.678685 0.906328,-0.678685 L 15.893955,16 c 0,0 -12.2092609,0 -12.3916575,0 C 3.3213149,16 3.1997169,15.876989 3.1997169,15.81619 5.375751,13.167904 7.4287734,10.648286 9.609049,8 7.4301872,5.2909154 3.2011308,-6.690794e-8 3.2011308,-6.690794e-8 Z m 0,0"/>
</svg>
