<svg xmlns="http://www.w3.org/2000/svg" viewBox="0 0 48 48" fill="currentColor">
  <path d="m25.956 6.8112c-1.0816-1.0816-2.8381-1.0816-3.9197 0l-13.844 13.844c-1.0816 1.0816-1.0816 2.8381 0 3.9197s2.8381 1.0816 3.9197 0l11.889-11.889 11.889 11.88c1.0816 1.0816 2.8381 1.0816 3.9197 0s1.0816-2.8381 0-3.9197l-13.844-13.844zm13.844 30.458-13.844-13.844c-1.0816-1.0816-2.8381-1.0816-3.9197 0l-13.844 13.844c-1.0816 1.0816-1.0816 2.8381 0 3.9197s2.8381 1.0816 3.9197 0l11.889-11.889 11.889 11.88c1.0816 1.0816 2.8381 1.0816 3.9197 0s1.0816-2.8381 0-3.9197z" stroke-width=".086528"/>
</svg>
