<?xml version="1.0"?><svg fill="#000000" xmlns="http://www.w3.org/2000/svg"  viewBox="0 0 24 24" width="24px" height="24px">    <path d="M 12 4 C 9.709 4 7.5608125 5.1379062 6.2578125 7.0039062 C 2.7848125 7.1319063 5.9211895e-16 9.997 0 13.5 C 0 17.084 2.916 20 6.5 20 L 14 20 L 14 19 C 14 18.812 14.026641 18.632078 14.056641 18.455078 C 14.087641 18.299078 14.126781 18.147 14.175781 18 C 14.343781 17.497 14.622812 17.054703 15.007812 16.720703 C 15.148813 14.051703 17.29 12 20 12 C 20.4 12 20.782344 12.056578 21.152344 12.142578 C 21.358344 12.189578 21.557953 12.251266 21.751953 12.322266 C 21.819953 12.347266 21.890031 12.370437 21.957031 12.398438 C 22.746031 12.728438 23.425406 13.249109 23.941406 13.912109 C 23.650406 11.224109 21.444078 9.1049062 18.705078 9.0039062 C 17.839078 6.0559063 15.149 4 12 4 z M 20 14 C 18.3 14 17 15.3 17 17 L 17 18 C 16.4 18 16 18.4 16 19 L 16 23 C 16 23.6 16.4 24 17 24 L 23 24 C 23.6 24 24 23.6 24 23 L 24 19 C 24 18.4 23.6 18 23 18 L 23 17 C 23 15.3 21.7 14 20 14 z M 20 15.5 C 20.8 15.5 21.5 16.2 21.5 17 L 21.5 18 L 18.5 18 L 18.5 17 C 18.5 16.2 19.2 15.5 20 15.5 z"/></svg>