<?xml version="1.0"?><svg fill="#000000" xmlns="http://www.w3.org/2000/svg"  viewBox="0 0 24 24" width="24px" height="24px">    <path d="M 12 4 C 9.709 4 7.5608125 5.1379062 6.2578125 7.0039062 C 2.7848125 7.1319063 5.9211895e-16 9.997 0 13.5 C 0 17.084 2.916 20 6.5 20 L 7.7832031 20 L 8.1953125 19.138672 C 8.2243125 19.077672 8.4551562 18.617 8.9101562 18 L 8.9082031 18 C 10.022203 16.487 12.53 14 17 14 C 19.098 14 20.753875 14.554875 22.046875 15.296875 C 22.310875 15.447875 22.563875 15.604578 22.796875 15.767578 C 23.103875 15.981578 23.388531 16.204687 23.644531 16.429688 C 23.869531 15.827687 24 15.179 24 14.5 C 24 11.536 21.643078 9.1119062 18.705078 9.0039062 C 17.839078 6.0559063 15.149 4 12 4 z M 17 16 C 11.909 16 10 20 10 20 C 10 20 11.909 24 17 24 C 22.091 24 24 20 24 20 C 24 20 22.091 16 17 16 z M 17 18 C 18.104 18 19 18.896 19 20 C 19 21.104 18.104 22 17 22 C 15.896 22 15 21.104 15 20 C 15 18.896 15.896 18 17 18 z"/></svg>