<svg xmlns="http://www.w3.org/2000/svg" viewBox="0 0 512 512" fill="currentColor" style="width: 100%; height: 100%;">
  <path d="m 255.022,511.998 0.229,0.001 h -0.079 z m 1.806,0.001 h -0.079 l 0.229,-0.001 z m -2.588,-0.005 0.247,10e-4 h -0.142 z m 3.415,10e-4 h -0.142 l 0.247,-10e-4 z m -4.169,-0.007 0.165,10e-4 -0.132,-10e-4 z m 4.995,0 -0.132,10e-4 0.165,-10e-4 z m 0.826,-0.009 -0.058,0.001 0.223,-0.003 z m -6.779,-0.002 0.223,0.003 -0.058,-0.001 z m 7.604,-0.01 -0.135,0.002 0.275,-0.004 z m -8.404,-0.002 0.275,0.004 -0.135,-0.002 z m 9.228,-0.012 -0.182,0.003 0.254,-0.005 z m -9.984,-0.002 0.254,0.005 -0.182,-0.003 z m -0.937,-0.019 0.225,0.005 -0.04,-0.001 z m 11.745,0.004 -0.04,0.001 0.225,-0.005 z m -12.567,-0.025 0.309,0.008 -0.125,-0.003 z m 13.39,0.005 -0.125,0.003 0.309,-0.008 z m 0.823,-0.022 -0.201,0.006 0.316,-0.009 z m -14.967,-0.003 0.316,0.009 -0.201,-0.006 z m -0.72,-0.022 0.225,0.007 -0.212,-0.007 -0.194,-0.006 z m 16.509,0 -0.212,0.007 0.225,-0.007 0.181,-0.006 z m 0.821,-0.027 -0.112,0.004 0.345,-0.012 z m -18.371,-0.008 0.345,0.012 -0.112,-0.004 z m -0.749,-0.028 0.362,0.013 -0.201,-0.007 z m 19.941,0.006 -0.201,0.007 0.362,-0.013 z m -20.676,-0.036 0.354,0.015 -0.277,-0.011 z m 21.495,0.004 -0.277,0.011 0.354,-0.015 z m -22.525,-0.049 0.38,0.017 -0.093,-0.003 z m 23.345,0.014 -0.093,0.003 0.38,-0.017 z m -24.084,-0.048 0.394,0.018 -0.186,-0.008 z m 24.902,0.01 -0.186,0.008 0.394,-0.018 z m -25.63,-0.047 0.397,0.02 -0.279,-0.013 z m 26.448,0.007 -0.279,0.013 0.397,-0.02 z m 0.818,-0.043 -0.362,0.019 0.321,-0.017 0.378,-0.021 z m -27.925,0.002 0.321,0.017 -0.362,-0.019 -0.337,-0.019 z m 28.741,-0.048 -0.16,0.009 0.406,-0.023 z m -29.844,-0.014 0.406,0.023 -0.16,-0.009 z m -0.722,-0.043 0.405,0.024 -0.253,-0.014 z m 31.382,0.01 -0.253,0.014 0.405,-0.024 z m -32.071,-0.053 0.365,0.023 -0.34,-0.021 -0.342,-0.022 z m 32.887,0.002 -0.34,0.021 0.365,-0.023 0.317,-0.02 z m 0.814,-0.053 -0.122,0.008 0.387,-0.026 z m -34.755,-0.018 0.387,0.026 -0.122,-0.008 z m -0.721,-0.05 0.38,0.027 -0.208,-0.014 z m 36.29,0.013 -0.208,0.014 0.38,-0.027 z m -37.009,-0.064 0.349,0.025 -0.271,-0.019 z m 37.822,0.006 -0.271,0.019 0.349,-0.025 z m -38.789,-0.079 0.306,0.023 -0.074,-0.005 z m 39.602,0.018 -0.074,0.005 0.306,-0.023 z m 0.811,-0.063 -0.146,0.011 0.311,-0.025 z m -41.157,-0.014 0.311,0.025 -0.146,-0.011 z m -0.725,-0.059 0.264,0.022 -0.186,-0.015 z m 42.694,0.007 -0.186,0.015 0.264,-0.022 z m -43.492,-0.074 0.079,0.007 -0.013,-0.001 z m 44.302,0.006 -0.013,0.001 0.079,-0.007 z m 0.81,-0.071 -0.072,0.006 0.181,-0.016 z m -45.965,-0.01 0.181,0.016 -0.072,-0.006 z m -0.75,-0.068 0.135,0.013 -0.084,-0.008 z m 47.523,0.005 -0.084,0.008 0.135,-0.013 z M 216,508.887 C 93.681,489.661 0,383.684 0,256 0,114.71 114.71,0 256,0 397.29,0 512,114.71 512,256 512,383.684 418.319,489.661 296,508.887 V 330 h 59.65 L 367,256 H 296 V 207.979 C 296,187.734 305.918,168 337.719,168 H 370 v -63 c 0,0 -29.296,-5 -57.305,-5 C 254.219,100 216,135.44 216,199.6 V 256 h -65 v 74 h 65 z"/>
</svg>
