<svg xmlns="http://www.w3.org/2000/svg" viewBox="0 0 142.31 142.31">
  <g transform="translate(-2210.6 -585.83)">
    <g transform="matrix(.2707 0 0 .2707 1647.4 516.45)">
      <path d="m2426.8 598.37h-129.53l81.59-97.235-70.857-84.444h114.74a47.953 47.953 0 0 1 46.43 35.964l-9.8182-55.682 47.989 27.706v188.98l-48.039 27.736 13.927-78.986a47.953 47.953 0 0 1-46.43 35.965z" fill="#69a50f"/>
      <g fill="#323232">
        <path d="m2453.6 393.67h-219.91l109.95-63.482z"/>
        <path d="m2233.3 644.4h220.8l-110.4 63.739z"/>
        <path d="m2230.3 395.65-50.272 29.025v188.98l50.102 28.926 103.67-123.54-103.52-123.37"/>
      </g>
    </g>
  </g>
</svg>
