<svg xmlns="http://www.w3.org/2000/svg" viewBox="0 0 2085.7 377.95">
  <g transform="translate(-2180 -330.19)">
    <g fill="#9ca3af">
      <path d="m2426.8 598.37h-129.53l81.59-97.235-70.857-84.444h114.74a47.953 47.953 0 0 1 46.43 35.964l-9.8182-55.682 47.989 27.706v188.98l-48.039 27.736 13.927-78.986a47.953 47.953 0 0 1-46.43 35.965z"/>
      <path d="m2453.6 393.67h-219.91l109.95-63.482z"/>
      <path d="m2233.3 644.4h220.8l-110.4 63.739z"/>
      <path d="m2230.3 395.65-50.272 29.025v188.98l50.102 28.926 103.67-123.54-103.52-123.37"/>
      <path d="m2794 566.44-13.815 49.315h-165.78v-5.5442q16.578-0.87541 21.183-5.5442 4.9121-4.9606 5.5261-20.718v-129.56q-0.614-15.757-5.2191-20.426-4.605-4.6688-21.49-5.836v-5.5442h163.02l0.921 41.728h-7.6751q-3.6839-19.551-11.973-24.803-7.982-5.5442-34.691-5.8361h-41.445q-6.447 0-8.2891 1.7508-1.535 1.7508-1.842 8.1705v64.78h47.278q19.341-0.5836 25.174-5.2524 5.8332-4.6688 8.5961-22.469h7.061v67.698h-7.061q-3.07-18.092-8.9031-22.761-5.526-4.9606-24.867-5.2524h-47.278v72.075q0 8.4623 3.9911 10.213 4.298 1.7508 28.244 2.3344h8.2891q32.849-0.29181 46.971-7.8787 14.429-7.5869 25.481-30.639z"/>
      <path d="m3030.8 422.58v5.5442q-14.736 0.8754-22.718 5.836-7.982 4.6688-23.025 21.593l-44.822 53.108 58.944 79.954q9.824 12.547 15.657 16.341 6.14 3.7934 18.42 5.2524v5.5442h-91.18v-5.5442q7.368-0.5836 8.2891-0.5836 15.35-0.29181 15.35-8.4623 0-6.7114-15.657-28.597l-29.165-40.852-36.533 43.187q-15.964 18.967-15.964 25.095 0 4.9606 4.912 7.295 4.9121 2.0426 18.42 2.918v5.5442h-71.532v-5.5442q11.666-0.87541 17.806-5.2524 6.14-4.6688 26.709-28.013l48.199-56.318-33.463-46.688q-22.411-30.347-31.621-37.643-8.9031-7.5868-23.946-8.1704v-5.5442h92.715v5.5442l-8.596 0.29179q-14.736 0.29181-14.736 8.4623 0 8.7541 26.095 43.77l12.894 17.216 34.691-40.269q12.28-14.007 12.28-20.134 0-4.9606-4.6051-6.7114-4.298-2.0426-16.885-2.6262v-5.5442z"/>
      <path d="m3152.5 418.49q45.129 0 74.601 30.639 25.788 26.262 25.788 71.2 0 44.062-28.551 71.783-28.244 27.721-73.68 27.721-20.262 0-39.603-7.8787-19.034-8.1705-32.542-21.885-12.28-12.548-19.341-31.223-7.0611-18.967-7.0611-39.685 0-44.062 28.244-72.367t72.146-28.305zm0 10.505q-25.788 0-43.901 18.967-9.824 10.213-15.657 30.056-5.8331 19.551-5.8331 41.728 0 24.22 7.0611 44.646 7.061 20.426 18.727 30.639 17.499 14.298 38.989 14.298 24.56 0 40.831-15.466 11.052-10.213 15.043-21.302 10.131-25.095 10.131-52.524 0-53.983-26.095-76.452-17.192-14.59-39.296-14.59z"/>
      <path d="m3543.5 422.58v5.5442q-16.885 1.1672-21.49 5.836-4.6051 4.6688-5.219 20.426v129.56q0.6139 15.757 5.219 20.718 4.912 4.6688 21.49 5.5442v5.5442h-85.96v-5.5442q18.42-1.1672 23.025-6.1278t4.912-23.344v-132.19l-78.592 167.2h-4.2981l-77.058-160.49v117.6q0.614 22.469 5.8331 29.472 5.219 7.0033 23.025 7.8787v5.5442h-72.145v-5.5442q19.034-1.1672 24.253-7.5869 5.219-6.7114 5.526-29.764v-118.47q-0.614-16.341-5.526-20.718-4.9121-4.6688-23.639-5.5442v-5.5442h60.786l70.918 147.36 67.848-147.36z"/>
      <path d="m3779.8 610.21v5.5442h-78.285v-5.5442q12.28-0.29181 16.885-2.3344 4.605-2.0426 4.605-7.5869 0-7.0032-5.8331-19.551l-12.587-28.013h-80.434l-14.122 34.141q-2.4561 6.1278-2.4561 11.38 0 11.964 20.876 11.964v5.5442h-60.786v-5.5442q11.052-0.29181 17.192-7.8787 6.14-7.8787 20.876-39.977l63.856-143.27h6.14l76.444 165.74q7.982 16.341 12.587 20.718 4.6051 4.0852 15.043 4.6688zm-150.43-69.449h70.918l-35.612-80.246z"/>
      <path d="m3914.3 610.21v5.5442h-89.645v-5.5442q19.341-1.1672 23.946-5.836 4.605-4.6688 4.912-23.636v-145.9h-16.578q-26.402 0.2918-34.998 7.0032-8.5961 6.4196-13.815 30.347h-7.3681l1.842-49.606h173.15l1.842 49.606h-7.368q-5.2191-23.928-13.815-30.347-8.2891-6.7114-34.998-7.0032h-16.578v149.11q0.3071 16.049 5.5261 20.718 5.219 4.6688 23.946 5.5442z"/>
      <path d="m3991.6 615.75v-5.5442q17.806-1.1672 22.104-5.836 4.6051-4.9606 4.9121-23.636v-126.35q-0.307-16.049-4.9121-20.426-4.298-4.377-22.104-5.836v-5.5442h85.346v5.5442q-17.806 1.459-22.411 5.836-4.298 4.377-4.605 20.426v56.61h93.022v-56.61q-0.307-16.049-4.9121-20.426-4.298-4.377-22.104-5.836v-5.5442h85.346v5.5442q-17.806 1.459-22.411 5.836-4.298 4.377-4.6051 20.426v129.56q0.3071 15.757 4.912 20.426 4.9121 4.377 22.104 5.836v5.5442h-85.346v-5.5442q17.806-1.1672 22.104-5.836 4.6051-4.9606 4.9121-23.636v-56.901h-93.022v60.111q0.307 15.757 4.912 20.426 4.9121 4.377 22.104 5.836v5.5442z"/>
      <path d="m4231.6 434.07v-1.0078h11.997q3.5245 0 5.6257 1.6798 2.169 1.6798 2.169 4.5018 0 4.8377-5.3547 6.9878l3.8635 5.3081q2.6434 3.6283 5.1513 5.7112v0.53753h-4.3379q-1.4912 0.33595-4.6769-5.3081-0.9488-1.747-3.5245-5.5768h-3.2534v6.6519q0 2.4189 0.4744 2.6876 0.6778 0.33596 2.8468 0.53753v1.0079h-10.98v-1.0079q2.169-0.20157 2.8468-0.53753 0.4744-0.26876 0.4744-2.6876v-16.193q0-2.486-0.4744-2.7548-0.5423-0.26876-2.8468-0.53753zm7.6592 0.26877v11.288h2.9145q2.2367 0 3.4568-1.5454 1.22-1.5454 1.22-4.4346 0-5.308-4.8124-5.308zm3.3212-11.758q9.8281 0 16.47 6.7862 6.6425 6.7862 6.6425 16.798 0 9.4067-6.778 16.126-6.7103 6.6519-16.335 6.6519-9.7603 0-16.538-6.7191-6.7103-6.7191-6.7103-16.395 0-9.7426 6.778-16.462 6.778-6.7862 16.471-6.7862zm0 2.822q-7.9981 0-13.759 6.0472-5.7612 6.0472-5.7612 14.379t5.7612 14.312q5.7613 5.98 13.759 5.98 7.7947 0 13.556-5.98 5.829-5.98 5.829-14.043 0-8.6004-5.6935-14.648-5.6257-6.0472-13.692-6.0472z"/>
    </g>
  </g>
</svg>
