<svg xmlns="http://www.w3.org/2000/svg" viewBox="0 0 48 48" fill="currentColor">
  <path d="m38 13h-22c-0.55 0-1 0.45-1 1v0.4875l11.088 8.2125c0.2625 0.19375 0.58125 0.3 0.9125 0.3s0.65-0.10625 0.9125-0.3l11.088-8.2125v-0.4875c0-0.55-0.45-1-1-1zm1 5.2188-9.3062 6.8938c-0.775 0.575-1.725 0.8875-2.6938 0.8875s-1.9188-0.3125-2.6938-0.8875l-9.3062-6.8938v9.7812c0 0.55 0.45 1 1 1h22c0.55 0 1-0.45 1-1zm-23-8.2188h22c2.2062 0 4 1.7938 4 4v14c0 2.2062-1.7938 4-4 4h-22c-2.2062 0-4-1.7938-4-4v-14c0-2.2062 1.7938-4 4-4zm-8.5 4c0.83125 0 1.5 0.66875 1.5 1.5v14c0 3.0375 2.4625 5.5 5.5 5.5h20c0.83125 0 1.5 0.66875 1.5 1.5s-0.66875 1.5-1.5 1.5h-20c-4.6938 0-8.5-3.8062-8.5-8.5v-14c0-0.83125 0.66875-1.5 1.5-1.5z" stroke-width=".0625"/>
</svg>
