<?xml version="1.0" encoding="UTF-8" standalone="no"?>
<svg
   xmlns:dc="http://purl.org/dc/elements/1.1/"
   xmlns:cc="http://creativecommons.org/ns#"
   xmlns:rdf="http://www.w3.org/1999/02/22-rdf-syntax-ns#"
   xmlns:svg="http://www.w3.org/2000/svg"
   xmlns="http://www.w3.org/2000/svg"
   xmlns:sodipodi="http://sodipodi.sourceforge.net/DTD/sodipodi-0.dtd"
   xmlns:inkscape="http://www.inkscape.org/namespaces/inkscape"
   viewBox="0 0 48 48"
   width="48"
   height="48"
   version="1.1"
   id="svg5"
   sodipodi:docname="data-sheet.svg"
   inkscape:version="0.92.4 (5da689c313, 2019-01-14)">
  <metadata
     id="metadata11">
    <rdf:RDF>
      <cc:Work
         rdf:about="">
        <dc:format>image/svg+xml</dc:format>
        <dc:type
           rdf:resource="http://purl.org/dc/dcmitype/StillImage" />
        <dc:title></dc:title>
      </cc:Work>
    </rdf:RDF>
  </metadata>
  <defs
     id="defs9" />
  <sodipodi:namedview
     pagecolor="#ffffff"
     bordercolor="#666666"
     borderopacity="1"
     objecttolerance="10"
     gridtolerance="10"
     guidetolerance="10"
     inkscape:pageopacity="0"
     inkscape:pageshadow="2"
     inkscape:window-width="1536"
     inkscape:window-height="779"
     id="namedview7"
     showgrid="false"
     inkscape:zoom="4.72"
     inkscape:cx="-1.3771186"
     inkscape:cy="25"
     inkscape:window-x="-8"
     inkscape:window-y="-8"
     inkscape:window-maximized="1"
     inkscape:current-layer="svg5" />
  <g
     id="surface97464667"
     transform="matrix(1.0582156,0,0,1.0582156,-2.45539,-2.45539)">
    <path
       style="fill:#000000;fill-opacity:1;fill-rule:nonzero;stroke:none"
       d="m 3.398438,2.320312 c -0.59375,0 -1.078126,0.484376 -1.078126,1.078126 v 8.640624 h 9.71875 v -9.71875 z m 10.800781,0 v 9.71875 h 9.722656 v -9.71875 z m 11.878906,0 v 9.71875 h 9.722656 v -9.71875 z m 11.882813,0 v 9.71875 h 9.71875 V 3.398438 c 0,-0.59375 -0.484376,-1.078126 -1.078126,-1.078126 z M 2.320312,14.199219 v 9.722656 h 9.71875 v -9.722656 z m 11.878907,0 v 33.480469 h 32.402343 c 0.59375,0 1.078126,-0.484376 1.078126,-1.078126 V 14.199219 Z m 2.160156,2.160156 h 7.5625 v 7.5625 h -7.5625 z m 9.71875,0 h 9.722656 v 7.5625 h -9.722656 z m 11.882813,0 h 7.558593 v 7.5625 h -7.558593 z m -35.640626,9.71875 v 9.722656 h 9.71875 v -9.722656 z m 14.039063,0 h 7.5625 v 9.722656 h -7.5625 z m 9.71875,0 h 9.722656 v 9.722656 h -9.722656 z m 11.882813,0 h 7.558593 v 9.722656 H 37.960938 Z M 2.320312,37.960938 v 8.640624 c 0,0.59375 0.484376,1.078126 1.078126,1.078126 h 8.640624 v -9.71875 z m 14.039063,0 h 7.5625 v 7.558593 h -7.5625 z m 9.71875,0 h 9.722656 v 7.558593 h -9.722656 z m 11.882813,0 h 7.558593 v 7.558593 h -7.558593 z m 0,0"
       id="path2"
       inkscape:connector-curvature="0" />
  </g>
</svg>
