<svg xmlns="http://www.w3.org/2000/svg" viewBox="0 0 20 16" fill="currentColor">
  <path d="M 2.3802966,-3.277552e-8 C 2.1708581,-3.277552e-8 2,0.17085805 2,0.38029656 V 3.4281777 H 5.4281777 V -3.277552e-8 Z m 3.8098517,0 V 3.4281777 H 9.6197038 V -3.277552e-8 Z m 4.1901477,0 V 3.4281777 h 3.429556 V -3.277552e-8 Z m 4.191526,0 V 3.4281777 H 18 V 0.38029656 C 18,0.17085805 17.829142,-3.277552e-8 17.619703,-3.277552e-8 Z M 2,4.1901483 V 7.6197038 H 5.4281777 V 4.1901483 Z m 4.1901483,0 V 16 H 17.619703 C 17.829142,16 18,15.829142 18,15.619703 V 4.1901483 Z M 6.9521186,4.9521186 H 9.6197038 V 7.6197038 H 6.9521186 Z m 3.4281774,0 h 3.429556 v 2.6675852 h -3.429556 z m 4.191526,0 h 2.666207 V 7.6197038 H 14.571822 Z M 2,8.3802962 V 11.809852 H 5.4281777 V 8.3802962 Z m 4.9521186,0 H 9.6197038 V 11.809852 H 6.9521186 Z m 3.4281774,0 h 3.429556 v 3.4295558 h -3.429556 z m 4.191526,0 h 2.666207 V 11.809852 H 14.571822 Z M 2,12.571822 v 3.047881 C 2,15.829142 2.1708581,16 2.3802966,16 h 3.0478811 v -3.428178 z m 4.9521186,0 h 2.6675852 v 2.666207 H 6.9521186 Z m 3.4281774,0 h 3.429556 v 2.666207 h -3.429556 z m 4.191526,0 h 2.666207 v 2.666207 h -2.666207 z m 0,0"/>
</svg>
