<svg xmlns="http://www.w3.org/2000/svg" viewBox="0 0 20 16" fill="currentColor">
  <path d="m 18.849448,5.4863276 h -1.690641 l -6.339903,7.6078834 h 1.690641 z m 0,0"/>
  <path d="m 17.804355,11.40357 c 0,0 -0.401197,0.212981 -0.510165,0.267465 -0.07925,0.03797 -0.160148,0.05779 -0.249303,0.05779 -0.105665,0 -0.148592,-0.03137 -0.171706,-0.05613 -0.02807,-0.02807 -0.104014,-0.122175 -0.206377,-0.401197 L 14.958002,6.5528844 C 14.900217,6.3877823 14.842431,6.2441442 14.784645,6.1170161 14.718605,5.9766794 14.637705,5.8512021 14.545248,5.7455371 14.441234,5.625013 14.3042,5.5325561 14.1424,5.4698176 c -0.151893,-0.059437 -0.336807,-0.089155 -0.548137,-0.089155 -0.359922,0 -0.704984,0.09741 -1.023631,0.2905789 -0.282323,0.1700548 -0.525023,0.3335051 -0.721494,0.4853991 l -0.184913,0.1436381 0.622433,0.8766898 c 0,0 0.401197,-0.212981 0.510164,-0.2674644 0.07925,-0.037972 0.160148,-0.057786 0.249303,-0.057786 0.127128,0 0.170055,0.037972 0.183263,0.051181 0.02476,0.021463 0.09411,0.099061 0.17831,0.3252505 l 1.674131,4.7483234 c 0.118873,0.363224 0.257558,0.640595 0.421009,0.848622 0.196471,0.249304 0.525023,0.374781 0.977401,0.374781 0.358271,0 0.704984,-0.09576 1.028584,-0.288928 0.290579,-0.171705 0.538231,-0.335156 0.733051,-0.48705 l 0.184914,-0.143638 z"/>
  <path d="M 12.493035,0.16014888 C 12.022495,0.05448383 11.507378,-2.36338e-8 10.960892,-2.36338e-8 9.6995148,-2.36338e-8 8.768342,0.27076667 8.0336394,0.85192444 7.2725209,1.4528944 6.7986791,2.1760398 6.4965434,3.1980191 6.4156433,3.4720876 6.366113,3.5975648 6.3215354,3.7065317 L 6.2819111,3.8105458 C 6.2274276,3.9525335 6.1795482,4.020225 6.1564338,4.0466413 6.1234114,4.0862657 6.077185,4.1159838 6.0177484,4.1424 5.9896796,4.1539556 5.872459,4.1952326 5.5340007,4.2282533 L 5.1245487,4.2579714 4.9016613,5.4863276 H 5.9384996 L 4.3634298,12.092044 c -0.1254768,0.541534 -0.2592095,0.980704 -0.396244,1.304303 -0.128779,0.305438 -0.2625112,0.533278 -0.3962439,0.680219 -0.1238259,0.137035 -0.2575581,0.236095 -0.3962439,0.293881 -0.1452895,0.05944 -0.3450624,0.08915 -0.5976678,0.08915 -0.2905788,0 -0.425962,-0.03467 -0.4820968,-0.04788 -0.2493035,-0.06109 -0.5217211,-0.208029 -0.5217211,-0.208029 l -0.4226602,1.479311 c 0,0 0.057786,0.05448 0.3698276,0.158497 C 1.8373749,15.947168 2.1857395,16 2.4713652,16 3.2209268,16 3.858219,15.86957 4.3964505,15.61036 4.9478898,15.346198 5.4184294,14.910329 5.7981634,14.314312 6.1630379,13.739759 6.4503145,12.965432 6.655041,12.009494 L 8.1937878,5.4863276 H 10.132081 L 10.396244,4.218347 H 8.4926221 L 8.6676297,3.4786917 C 8.799711,2.9041379 9.0110411,2.3725104 9.2405325,2.0406563 c 0.028069,-0.039624 0.057786,-0.079249 0.074296,-0.09741 l 0.036323,-0.034672 c 0.2212351,-0.2393972 0.520069,-0.3714785 0.8403665,-0.3714785 0.460634,0 0.875039,0.2740689 1.058301,0.6967291 0,0 0.05283,0.107316 0.123827,0.2938807 h 1.12104 l 0.437519,-2.27179858 z"/>
</svg>
