<?xml version="1.0" encoding="UTF-8" standalone="no"?>
<svg
   xmlns:dc="http://purl.org/dc/elements/1.1/"
   xmlns:cc="http://creativecommons.org/ns#"
   xmlns:rdf="http://www.w3.org/1999/02/22-rdf-syntax-ns#"
   xmlns:svg="http://www.w3.org/2000/svg"
   xmlns="http://www.w3.org/2000/svg"
   xmlns:sodipodi="http://sodipodi.sourceforge.net/DTD/sodipodi-0.dtd"
   xmlns:inkscape="http://www.inkscape.org/namespaces/inkscape"
   viewBox="0 0 48 48"
   width="48px"
   height="48px"
   version="1.1"
   id="svg5"
   sodipodi:docname="sigma.svg"
   inkscape:version="0.92.4 (5da689c313, 2019-01-14)">
  <metadata
     id="metadata11">
    <rdf:RDF>
      <cc:Work
         rdf:about="">
        <dc:format>image/svg+xml</dc:format>
        <dc:type
           rdf:resource="http://purl.org/dc/dcmitype/StillImage" />
        <dc:title></dc:title>
      </cc:Work>
    </rdf:RDF>
  </metadata>
  <defs
     id="defs9" />
  <sodipodi:namedview
     pagecolor="#ffffff"
     bordercolor="#666666"
     borderopacity="1"
     objecttolerance="10"
     gridtolerance="10"
     guidetolerance="10"
     inkscape:pageopacity="0"
     inkscape:pageshadow="2"
     inkscape:window-width="1536"
     inkscape:window-height="779"
     id="namedview7"
     showgrid="false"
     inkscape:zoom="4.9166667"
     inkscape:cx="-1.3220339"
     inkscape:cy="24"
     inkscape:window-x="-8"
     inkscape:window-y="-8"
     inkscape:window-maximized="1"
     inkscape:current-layer="svg5" />
  <g
     id="surface97391074"
     transform="matrix(1.0858961,0,0,1.0858961,-1.4231184,-2.0615064)">
    <path
       style="fill:#000000;fill-opacity:1;fill-rule:nonzero;stroke:none"
       d="m 39.601562,1.898438 v 10.402343 c -0.339843,0 -0.07031,0.3125 -0.578124,0.3125 -0.5,0 -0.664063,-0.171875 -0.828126,-0.675781 0,-0.347656 -0.167968,-0.519531 -0.167968,-0.863281 -1,-3.730469 -2.550782,-5.273438 -6.226563,-5.273438 -5.003906,0 -13.691406,0 -13.855469,0 -0.167968,0 -0.496093,-0.050781 -0.496093,0.292969 4,5.441406 7.550781,10.421875 11.726562,15.863281 -4.84375,5.777344 -14.527343,17.644531 -14.527343,17.644531 0,0 11.683593,0 17.859374,0 3.113282,0 5.921876,-1.945312 6.851563,-4.382812 0.167969,-0.335938 0.335937,-0.507812 0.335937,-0.84375 C 40.1875,32.160156 42.199219,32.5 42.199219,32.5 l -2.503907,13.601562 c 0,0 -33.730468,0 -34.234374,0 -0.5,0 -0.835938,-0.339843 -0.835938,-0.507812 C 10.636719,38.277344 16.308594,31.316406 22.332031,24 16.3125,16.515625 4.628906,1.898438 4.628906,1.898438 Z m 0,0"
       id="path2"
       inkscape:connector-curvature="0" />
  </g>
</svg>
