<svg xmlns="http://www.w3.org/2000/svg" viewBox="0 0 48 48" style="width: 100%; height: 100%;">
  <g transform="matrix(1.1944 0 0 1.1944 -4.6666 -4.0693)">
    <path d="m14 19.001h6v8h-6z" fill="#e69329"/>
    <path d="m19 25h5v8.5c0 1.381-1.119 2.5-2.5 2.5s-2.5-1.119-2.5-2.5zm5-1h5v8.5c0 1.381-1.119 2.5-2.5 2.5s-2.5-1.119-2.5-2.5zm5-2h5v8.5c0 1.381-1.119 2.5-2.5 2.5s-2.5-1.119-2.5-2.5z" fill="#e69329"/>
    <path d="m17 26c0 1.656 1.343 3 3 3h19c1.657 0 3-1.344 3-3v-12c0-1.656-1.343-3-3-3h-19c-1.657 0-3 1.344-3 3z" fill="#64b5f6"/>
    <path d="m17 15h25v4h-25z" fill="#37474f"/>
    <path d="m19 20h21v4h-21z" fill="#e3f2fd"/>
    <path d="m27.967 21.784c1.096 1.356 0.582 3.105-0.558 4.145l-9.409 8.071c-0.569 0.521-3.294 1-3.916 1h-8.084l7.304-10.413 4.696 0.413 5.225-3.377c1.838-1.42 3.603-1.201 4.742 0.161" fill="#ffb74d"/>
    <path d="m17 20.562v-7.562c-0.73 0-1.463-1e-3 -1.951 0.244l-9.049 7.756v14c16-1 9-9 9-9z" fill="#ffb74d"/>
    <path d="m26.811 24.854c0.699-0.714 0.689-1.858-0.023-2.559-0.714-0.699-1.859-0.688-2.559 0.024-0.701 0.713 1.881 3.248 2.582 2.535" fill="#ffcdd2"/>
  </g>
</svg>
