<svg xmlns="http://www.w3.org/2000/svg" viewBox="0 0 51 51">
  <g id="surface95754851">
    <path style="stroke:none;fill-rule:nonzero;fill:rgb(56.470591%,79.215688%,97.647059%);fill-opacity:1;" d="M 40 45 L 8 45 L 8 3 L 30 3 L 40 13 Z M 40 45 "/>
    <path style="stroke:none;fill-rule:nonzero;fill:rgb(88.235295%,96.078432%,99.607843%);fill-opacity:1;" d="M 38.5 14 L 29 14 L 29 4.5 Z M 38.5 14 "/>
    <path style="stroke:none;fill-rule:nonzero;fill:rgb(9.803922%,46.27451%,82.352942%);fill-opacity:1;" d="M 16 21 L 33 21 L 33 23 L 16 23 Z M 16 25 L 29 25 L 29 27 L 16 27 Z M 16 29 L 33 29 L 33 31 L 16 31 Z M 16 33 L 29 33 L 29 35 L 16 35 Z M 16 33 "/>
    <path style="stroke:none;fill-rule:nonzero;fill:rgb(98.431373%,54.901963%,0%);fill-opacity:1;" d="M 46.199219 48 L 33.800781 48 C 32.800781 48 32 47.199219 32 46.199219 L 32 37.800781 C 32 36.800781 32.800781 36 33.800781 36 L 46.199219 36 C 47.199219 36 48 36.800781 48 37.800781 L 48 46.199219 C 48 47.199219 47.199219 48 46.199219 48 "/>
    <path style="stroke:none;fill-rule:nonzero;fill:rgb(78.039217%,43.137255%,0%);fill-opacity:1;" d="M 42 42 C 42 43.101562 41.101562 44 40 44 C 38.898438 44 38 43.101562 38 42 C 38 40.898438 38.898438 40 40 40 C 41.101562 40 42 40.898438 42 42 "/>
    <path style="stroke:none;fill-rule:nonzero;fill:rgb(21.568628%,27.843139%,30.980393%);fill-opacity:1;" d="M 45 36 L 43 36 L 43 33 C 43 32.5 42.800781 30 40 30 C 37.199219 30 37 32.5 37 33 L 37 36 L 35 36 L 35 33 C 35 31.300781 36 28 40 28 C 44 28 45 31.300781 45 33 Z M 45 36 "/>
  </g>
</svg>
