<svg xmlns="http://www.w3.org/2000/svg" viewBox="0 0 51 51" style="width: 100%; height: 100%;">
  <g id="surface96034251">
    <path style="stroke:none;fill-rule:nonzero;fill:rgb(56.470591%,79.215688%,97.647059%);fill-opacity:1;" d="M 40 45 L 8 45 L 8 3 L 30 3 L 40 13 Z M 40 45 "/>
    <path style="stroke:none;fill-rule:nonzero;fill:rgb(88.235295%,96.078432%,99.607843%);fill-opacity:1;" d="M 38.5 14 L 29 14 L 29 4.5 Z M 38.5 14 "/>
    <path style="stroke:none;fill-rule:nonzero;fill:rgb(9.803922%,46.27451%,82.352942%);fill-opacity:1;" d="M 16 21 L 33 21 L 33 23 L 16 23 Z M 16 25 L 29 25 L 29 27 L 16 27 Z M 16 29 L 33 29 L 33 31 L 16 31 Z M 16 33 L 29 33 L 29 35 L 16 35 Z M 16 33 "/>
    <path style="stroke:none;fill-rule:nonzero;fill:rgb(100%,100%,100%);fill-opacity:1;" d="M 36 36 C 30.5 36 24 41 24 41 C 24 41 30.5 46 36 46 C 41.5 46 48 41 48 41 C 48 41 41.5 36 36 36 Z M 36 36 "/>
    <path style="stroke:none;fill-rule:nonzero;fill:rgb(0%,58.823532%,53.333336%);fill-opacity:1;" d="M 36 36 C 34.699219 36 33.5 36.199219 32.398438 36.5 C 31.5 37.398438 31 38.699219 31 40 C 31 42.800781 33.199219 45 36 45 C 38.800781 45 41 42.800781 41 40 C 41 38.699219 40.5 37.398438 39.601562 36.5 C 38.5 36.199219 37.300781 36 36 36 Z M 36 36 "/>
    <path style="stroke:none;fill-rule:nonzero;fill:rgb(14.901961%,19.607843%,21.960784%);fill-opacity:1;" d="M 38 40 C 38 41.105469 37.105469 42 36 42 C 34.894531 42 34 41.105469 34 40 C 34 38.894531 34.894531 38 36 38 C 37.105469 38 38 38.894531 38 40 Z M 38 40 "/>
    <path style="stroke:none;fill-rule:nonzero;fill:rgb(100%,100%,100%);fill-opacity:1;" d="M 36 38 C 36 37.398438 36.398438 37 37 37 C 37.601562 37 38 37.398438 38 38 C 38 38.601562 37.601562 39 37 39 C 36.398438 39 36 38.601562 36 38 "/>
    <path style="stroke:none;fill-rule:nonzero;fill:rgb(100%,65.490198%,14.901961%);fill-opacity:1;" d="M 24 41 C 24 41 29 33 36 33 C 43 33 48 41 48 41 C 48 41 41 36 36 36 C 31 36 24 41 24 41 Z M 36 48 C 43 48 48 41 48 41 C 48 41 41 46 36 46 C 31 46 24 41 24 41 C 24 41 29 48 36 48 Z M 36 48 "/>
  </g>
</svg>
