<svg xmlns="http://www.w3.org/2000/svg" viewBox="0 0 48 48" style="width: 100%; height: 100%;">
  <path fill="#FFC107" d="M36,14c-6.785,0-13.313,8.426-13.588,8.784l0.105,0.081C20.958,24.91,16.209,30,12.167,30c-3.309,0-6-2.691-6-6c0-3.242,2.635-5.933,5.874-5.998l-0.081-4C6.56,14.111,2.167,18.597,2.167,24c0,5.514,4.486,10,10,10c6.804,0,12.925-7.899,13.601-8.8l-0.104-0.078C27.29,23.051,32.094,18,36,18c3.309,0,6,2.691,6,6s-2.691,6-6,6v4c5.514,0,10-4.486,10-10S41.514,14,36,14z"/>
  <path fill="#FFC107" d="M36,34c-6.804,0-12.924-7.899-13.6-8.8l-1.165-1.554C19.05,21.287,15.313,18,12.167,18l-0.132,0.002l-0.07-4L12.167,14c6.625,0,12.892,7.881,13.584,8.779l1.528,1.981C29.459,27.069,32.934,30,36,30V34z"/>
  <g>
    <path fill="#FF9800" d="M24.083 27.205c-.898-.984-1.499-1.76-1.684-2.005l-.864-1.152c-.758.859-1.752 1.875-2.879 2.828L19.2 27.6c.329.438 1.019 1.319 2.001 2.39C22.347 29.024 23.322 28.041 24.083 27.205zM25.751 22.779l.905 1.173c.408-.454.877-.948 1.4-1.458l-.723-.937c-.306-.396-.939-1.188-1.831-2.151-.531.508-1.005.99-1.415 1.431C24.972 21.792 25.565 22.539 25.751 22.779z"/>
  </g>
</svg>
