<svg xmlns="http://www.w3.org/2000/svg" viewBox="0 0 172 172" fill="#000000" style="width: 100%; height: 100%;">
  <g fill="none" fill-rule="nonzero" stroke="none" stroke-width="1" stroke-linecap="butt" stroke-linejoin="miter" stroke-miterlimit="10" stroke-dasharray="" stroke-dashoffset="0" font-family="none" font-weight="none" font-size="none" text-anchor="none" style="mix-blend-mode: normal">
    <path d="M0,172v-172h172v172z" fill="none"/>
    <g>
      <path d="M35.83333,143.33333v-114.66667c0,-3.94167 3.225,-7.16667 7.16667,-7.16667h86c3.94167,0 7.16667,3.225 7.16667,7.16667v114.66667c0,3.94167 -3.225,7.16667 -7.16667,7.16667h-86c-3.94167,0 -7.16667,-3.225 -7.16667,-7.16667z" fill="#3498db"/>
      <path d="M46.58333,111.08333c-3.95804,0 -7.16667,3.20863 -7.16667,7.16667c0,3.95804 3.20863,7.16667 7.16667,7.16667c3.95804,0 7.16667,-3.20863 7.16667,-7.16667c0,-3.95804 -3.20863,-7.16667 -7.16667,-7.16667zM46.58333,89.58333c-3.95804,0 -7.16667,3.20863 -7.16667,7.16667c0,3.95804 3.20863,7.16667 7.16667,7.16667c3.95804,0 7.16667,-3.20863 7.16667,-7.16667c0,-3.95804 -3.20863,-7.16667 -7.16667,-7.16667zM46.58333,68.08333c-3.95804,0 -7.16667,3.20863 -7.16667,7.16667c0,3.95804 3.20863,7.16667 7.16667,7.16667c3.95804,0 7.16667,-3.20863 7.16667,-7.16667c0,-3.95804 -3.20863,-7.16667 -7.16667,-7.16667zM46.58333,46.58333c-3.95804,0 -7.16667,3.20863 -7.16667,7.16667c0,3.95804 3.20863,7.16667 7.16667,7.16667c3.95804,0 7.16667,-3.20863 7.16667,-7.16667c0,-3.95804 -3.20863,-7.16667 -7.16667,-7.16667z" fill="#1c577a"/>
      <g fill="#b0bec5">
        <path d="M46.58333,121.83333h-14.33333c-2.15,0 -3.58333,-1.43333 -3.58333,-3.58333v0c0,-2.15 1.43333,-3.58333 3.58333,-3.58333h14.33333c2.15,0 3.58333,1.43333 3.58333,3.58333v0c0,2.15 -1.43333,3.58333 -3.58333,3.58333zM46.58333,100.33333h-14.33333c-2.15,0 -3.58333,-1.43333 -3.58333,-3.58333v0c0,-2.15 1.43333,-3.58333 3.58333,-3.58333h14.33333c2.15,0 3.58333,1.43333 3.58333,3.58333v0c0,2.15 -1.43333,3.58333 -3.58333,3.58333zM46.58333,78.83333h-14.33333c-2.15,0 -3.58333,-1.43333 -3.58333,-3.58333v0c0,-2.15 1.43333,-3.58333 3.58333,-3.58333h14.33333c2.15,0 3.58333,1.43333 3.58333,3.58333v0c0,2.15 -1.43333,3.58333 -3.58333,3.58333zM46.58333,57.33333h-14.33333c-2.15,0 -3.58333,-1.43333 -3.58333,-3.58333v0c0,-2.15 1.43333,-3.58333 3.58333,-3.58333h14.33333c2.15,0 3.58333,1.43333 3.58333,3.58333v0c0,2.15 -1.43333,3.58333 -3.58333,3.58333z"/>
      </g>
      <path d="M64.5,53.75h50.16667v35.83333h-50.16667z" fill="#ffffff"/>
      <g fill="#03a9f4">
        <path d="M71.66667,60.91667h35.83333v7.16667h-35.83333zM71.66667,75.25h35.83333v7.16667h-35.83333z"/>
      </g>
    </g>
  </g>
</svg>
