<svg xmlns="http://www.w3.org/2000/svg" viewBox="0 0 48 48">
  <g id="surface200402227">
    <path style=" stroke:none;fill-rule:nonzero;fill:rgb(92.54902%,94.117647%,94.509804%);fill-opacity:1;" d="M 24 0 C 10.746094 0 0 10.746094 0 24 C 0 37.253906 10.746094 48 24 48 C 37.253906 48 48 37.253906 48 24 C 48 10.746094 37.253906 0 24 0 Z M 24 0 "/>
  <path style=" stroke:none;fill-rule:nonzero;fill:rgb(58.431375%,64.705884%,65.098041%);fill-opacity:1;" d="M 33.519531 20.320312 C 33.519531 25.578125 29.257812 29.839844 24 29.839844 C 18.742188 29.839844 14.480469 25.578125 14.480469 20.320312 C 14.480469 15.0625 18.742188 10.800781 24 10.800781 C 26.523438 10.800781 28.945312 11.800781 30.730469 13.585938 C 32.515625 15.375 33.519531 17.792969 33.519531 20.320312 "/>
  <path style=" stroke:none;fill-rule:nonzero;fill:rgb(58.431375%,64.705884%,65.098041%);fill-opacity:1;" d="M 24 33.921875 C 17.699219 33.878906 11.730469 36.75 7.824219 41.695312 C 16.96875 50.101562 31.03125 50.101562 40.175781 41.695312 C 36.269531 36.75 30.300781 33.878906 24 33.921875 Z M 24 33.921875 "/>
  </g>
</svg>
