<svg fill="#000000" version="1.1" viewBox="0 0 48 48" xmlns="http://www.w3.org/2000/svg">
  <path d="m37.184 6v8.4706c-0.27529 0-0.05718 0.25412-0.47012 0.25412-0.40659 0-0.54106-0.13765-0.67553-0.55059 0-0.28165-0.13447-0.42141-0.13447-0.70094-0.8153-3.0409-2.0774-4.2967-5.0728-4.2967h-11.285c-0.13553 0-0.40447-0.039176-0.40447 0.23824 3.258 4.4322 6.1518 8.4896 9.5516 12.92-3.9462 4.7075-11.831 14.371-11.831 14.371h14.545c2.5348 0 4.8229-1.584 5.5821-3.5682 0.13659-0.27529 0.27106-0.41294 0.27106-0.68718 0.40341-1.8042 2.0414-1.5289 2.0414-1.5289l-2.0414 11.078h-27.883c-0.40659 0-0.67871-0.27529-0.67871-0.41294 4.8949-5.9591 9.5167-11.629 14.42-17.587-4.9024-6.0967-14.419-18-14.419-18z" fill="#00acc1" stroke-width="1.0588"/>
</svg>
