<svg xmlns="http://www.w3.org/2000/svg" viewBox="0 0 48 48" style="width: 100%; height: 100%;">
  <path fill="#90caf9" d="M40,45H7V3h22l11,11V45z"/>
  <path fill="#e1f5fe" d="M40,14H29V3L40,14z"/>
  <rect width="17" height="2" x="15" y="19" fill="#1976d2"/>
  <rect width="16" height="2" x="15" y="23" fill="#1976d2"/>
  <rect width="17" height="2" x="15" y="27" fill="#1976d2"/>
  <rect width="13" height="2" x="15" y="31" fill="#1976d2"/>
  <path fill="#ffb74d" d="M47,30l-7.127-6.813c-0.387-0.193-0.966-0.193-1.545-0.193h-8.712v0.046	c-0.401,0.082-0.781,0.282-1.076,0.608l-7.128,7.92c-0.732,0.813-0.665,2.065,0.147,2.797c0.379,0.341,0.851,0.509,1.323,0.509	c0.543,0,1.081-0.221,1.472-0.655l6.053-6.473v7.128h8.712v6.336L48,41V30H47z"/>
  <path fill="#e69329" d="M38.328,33.29h-3.96v6.732c0,1.094,0.886,1.98,1.98,1.98s1.98-0.886,1.98-1.98V33.29z M34.368,32.498	h-3.96v6.732c0,1.094,0.886,1.98,1.98,1.98s1.98-0.886,1.98-1.98V32.498z M30.408,31.706h-3.96v5.94c0,1.094,0.886,1.98,1.98,1.98	s1.98-0.886,1.98-1.98V31.706z"/>
  <path fill="#455a64" d="M22.963,40.538l-1.198-1.036l-1.037,1.2c-0.286,0.331-0.249,0.831,0.082,1.117l0,0	c0.331,0.286,0.831,0.249,1.117-0.082L22.963,40.538z"/>
  <path fill="#33691e" d="M43.841,15.653c-0.994-0.859-2.493-0.749-3.35,0.243l-8.073,8.968l3.597,3.107l8.071-8.969	C44.943,18.01,44.834,16.51,43.841,15.653z"/>
  <path fill="#4caf50" d="M22.708,40.835c1.46-0.441,4.198-2.436,4.824-3.16l7.964-9.104L31.9,25.463l-7.963,9.105	c-0.626,0.723-2.202,3.722-2.426,5.23L22.708,40.835z"/>
  <path fill="#ff0" d="M32.418,24.864l3.596,3.106l-1.036,1.2l-3.596-3.106L32.418,24.864z"/>
  <path fill="#ffb74d" d="M24.969,34.96L24.969,34.96c-0.418,1.316,0.464,2.459,1.605,2.897l8.456,2.42	c0.57,0.221,3.328,1.476,5.311,0.703c2.214-0.863,4.118-2.681,4.118-2.681l-5.339-6.592l-4.248,2.385l-6.444-0.702	C26.61,33.089,25.417,33.626,24.969,34.96"/>
  <path fill="#ffcdd2" d="M26.501,36.822c-0.722-0.325-1.043-1.172-0.719-1.894c0.326-0.722,1.174-1.044,1.895-0.718	C28.398,34.533,27.223,37.146,26.501,36.822"/>
  <path fill="#e69329" d="M34.978,29.17l-0.003-0.003l-3.941,4.506l3.838,0.418l4.248-2.385l-1.584-3.159l-1.402-0.709	l-0.12,0.133l-0.519,0.6l0,0l-0.022,0.025L34.978,29.17z"/>
</svg>
