<svg xmlns="http://www.w3.org/2000/svg" viewBox="0 0 48 48">
  <path fill="#1976D2" d="M3 10H45V39H3z"/>
  <path fill="#1976D2" d="M24 31A5 5 0 1 0 24 41A5 5 0 1 0 24 31Z"/>
  <path fill="#263238" d="M24 33A3 3 0 1 0 24 39A3 3 0 1 0 24 33Z"/>
  <path fill="#CFD8DC" d="M40 7L25 10 23 10 8 7 6 12 6 36 42 36 42 12z"/>
  <path fill="#B0BEC5" d="M8,33h15v3h2v-3h15l2,3H6L8,33z M25,10h-2v26h2V10z"/>
  <path fill="#ECEFF1" d="M40,33c0,0-15,0-15,3c0,0,0-23,0-26s15-3,15-3V33z M8,33c0,0,15,0,15,3c0,0,0-23,0-26S8,7,8,7V33z"/>
  <path fill="#2196F3" d="M33.9,28h-2.8V17h2.8V28z M34,13.5c0-0.8-0.7-1.5-1.5-1.5S31,12.7,31,13.5s0.7,1.5,1.5,1.5S34,14.3,34,13.5"/>
</svg>
