<svg xmlns="http://www.w3.org/2000/svg" viewBox="0 0 48 48" fill="#000000">
  <path d="m43.68 11.631-8.2693 8.1743s-2.4713 0-4.9426-2.4713c-2.4713-2.4713-2.4713-4.9426-2.4713-4.9426l8.2693-8.2693c-4.6574-1.1406-10.265 0.3802-13.687 3.802-5.1327 5.1327-0.5703 11.691-1.901 13.022-7.2238 7.5089-14.638 13.212-14.828 13.497-2.1861 2.1861-2.2812 5.703-0.1901 7.7941 2.0911 2.0911 5.6079 1.996 7.7941-0.1901 0.28515-0.28515 6.3683-7.9842 13.497-15.113 1.3307-1.3307 7.604 3.5168 12.927-1.7109 3.3267-3.4218 4.9426-8.9347 3.802-13.592zm-33.552 28.61c-1.3307 0-2.3762-1.0455-2.3762-2.3762 0-1.4257 1.0455-2.4713 2.3762-2.4713 1.3307 0 2.3762 1.0455 2.3762 2.3762s-1.0455 2.4713-2.3762 2.4713z" fill="#607d8b" stroke-width=".95049"/>
</svg>
